<?xml version="1.0" encoding="UTF-8" standalone="no"?>
<!-- Created with Inkscape (http://www.inkscape.org/) -->
<svg
   xmlns:svg="http://www.w3.org/2000/svg"
   xmlns="http://www.w3.org/2000/svg"
   version="1.0"
   width="297mm"
   height="210mm"
   id="svg2545">
  <defs
     id="defs2547" />
  <g
     id="g2394">
    <path
       d="M 828.55828,392.47552 C 825.86813,394.66973 817.54432,401.04193 802.38027,410.10859 C 801.08779,410.87077 799.83611,411.5535 798.60804,412.17612 C 803.54178,405.177 807.27107,398.53427 810.26609,392.47552 L 828.55828,392.47552 z M 821.13621,378.99255 L 825.88531,378.66621 C 825.88531,378.66621 826.70974,381.12234 826.70974,382.76477 C 826.70974,384.40077 826.88365,387.5289 826.22453,387.5289 C 825.56541,387.5289 820.96015,387.5289 820.96015,387.5289 L 821.13621,378.99255 L 821.13621,378.99255 z M 839.9952,375.21388 C 839.9952,375.21388 840.1691,376.53856 840.33442,378.82723 C 840.50188,381.12019 840.1691,384.40077 840.1691,384.40077 C 840.1691,384.40077 837.3673,384.90101 835.40497,385.07491 C 833.4362,385.2252 831.30641,384.57467 831.30641,384.57467 L 831.14109,375.87085 C 833.09483,375.21388 839.9952,375.21388 839.9952,375.21388 z M 789.64444,370.4476 L 789.64444,352.24129 C 793.24706,351.57573 793.74945,348.6215 799.16411,349.12174 C 800.96112,349.28706 802.27722,353.38563 802.44039,356.02211 C 802.61,358.64141 802.91272,361.42174 801.78127,362.24832 C 800.6219,363.06417 798.34182,365.36787 796.36016,368.16323 C 794.40857,370.94141 789.64444,370.44975 789.64444,370.4476 L 789.64444,370.4476 z M 763.4471,395.40614 C 761.72309,395.90638 758.29008,396.14899 756.82585,395.66377 C 755.36805,395.17212 754.62091,393.695 754.14857,392.47552 C 753.64618,391.24745 754.62091,388.80205 755.36805,388.0592 C 756.08729,387.33138 760.76124,389.01461 762.23192,388.772 C 764.14702,388.4521 764.90919,387.8166 765.16253,389.77893 C 765.39011,391.73911 765.16253,394.92092 763.4471,395.40614 z M 732.66169,503.34294 C 724.28851,513.42512 716.1386,519.98411 710.97514,522.89326 C 711.21131,520.6647 711.21131,518.37174 710.99017,516.04657 C 709.88663,505.58653 697.01768,490.71017 678.93375,490.59638 C 703.10435,481.59198 725.62821,470.9108 745.77539,458.95218 C 748.779,457.17019 751.63447,455.3925 754.34824,453.61266 C 754.95583,456.60339 755.58275,459.77876 756.23328,463.02069 C 749.02375,478.98341 741.47071,492.71114 732.66169,503.34294 L 732.66169,503.34294 z M 672.25452,390.5046 C 668.70343,391.83787 663.50347,394.96815 662.32049,395.85271 C 662.32049,395.85271 660.98293,392.28659 661.43379,391.09717 C 661.86963,389.90774 665.5753,387.24121 667.52045,385.30249 C 668.73349,384.08087 672.32752,378.8487 674.7901,371.43521 C 677.74218,371.50821 683.56262,371.95048 684.65757,372.39705 C 685.40687,372.69119 688.49636,374.40447 691.3733,376.34318 C 704.4505,392.20286 720.93064,410.9867 735.25738,423.77835 C 734.17101,424.51262 733.0825,425.25547 731.98969,426.00476 C 729.66667,425.84589 727.3737,425.83945 725.11724,425.95968 C 722.33691,425.71063 719.78416,425.58181 718.76435,425.4444 C 716.53794,425.15027 712.98041,423.36184 711.33798,421.8697 C 709.71057,420.38399 705.98343,418.75015 703.76347,414.60005 C 701.53706,410.42634 700.20593,404.1851 697.52007,401.0634 C 694.85139,397.92883 687.26829,390.6506 684.5996,390.06018 C 681.92233,389.46117 675.83352,389.16489 672.25452,390.5046 z M 675.53724,437.47817 C 673.57706,439.08626 666.2838,442.69102 662.77135,445.90289 C 662.69836,445.92436 662.62321,445.94797 662.5266,445.963 C 657.41681,446.1455 650.06343,445.81916 647.46775,445.06986 C 648.85254,441.78929 658.06734,424.62641 663.06119,415.71219 C 666.55861,417.71102 669.11136,419.51447 670.92984,422.47514 C 673.75526,427.0804 677.90535,435.55664 675.53724,437.47817 L 675.53724,437.47817 z M 527.44564,475.27345 C 474.09772,477.7897 360.26533,466.88953 314.47688,455.66516 L 314.75384,452.83975 C 331.53671,457.52015 360.05493,461.01971 394.66195,462.54191 C 430.1299,464.10276 490.00462,466.29911 542.22968,465.13975 C 589.08732,464.1092 620.67141,461.01327 636.49243,458.56572 C 657.01747,455.37747 666.43409,454.01414 674.73213,454.65823 C 637.29755,466.89811 590.80275,472.2913 527.44564,475.27345 L 527.44564,475.27345 z M 625.86278,518.52847 C 614.44948,528.25424 603.25303,538.98051 595.82666,543.93357 C 589.84949,547.9162 582.47465,550.10611 577.57097,550.81032 C 578.3267,547.70365 578.68095,544.36511 578.50275,540.84408 C 577.88872,529.47372 571.63889,521.95288 563.47396,518.12913 C 593.69687,514.68753 623.15545,508.48708 650.93725,500.06452 C 641.09339,505.89569 632.06967,513.23618 625.86278,518.52847 L 625.86278,518.52847 z M 505.75909,529.989 C 493.98296,536.19159 472.62919,548.89522 460.86808,554.46876 C 451.24321,559.03536 443.89413,561.51941 437.47469,561.08142 C 444.19471,553.81608 445.90584,544.85677 442.91082,535.25337 C 441.19539,529.7378 436.96371,524.80191 430.79117,521.341 C 463.39077,522.11176 496.50135,522.21911 524.64599,521.02969 C 517.74348,523.81645 511.19522,527.13352 505.75909,529.989 z M 373.27597,526.27688 C 361.49984,531.85901 341.37843,542.07644 331.7965,546.40903 C 324.3873,549.76474 316.43278,552.36258 311.04817,552.38619 C 316.37051,548.00637 319.87652,542.31905 319.70905,536.49646 C 319.46215,526.15451 314.90628,519.71145 308.90764,515.7739 C 328.37637,517.12649 356.59401,518.7496 387.92905,519.98411 C 382.87293,521.7618 378.09377,523.99895 373.27597,526.27688 L 373.27597,526.27688 z M 330.31294,418.75659 L 330.38379,426.61665 C 327.33724,426.33754 324.5655,426.05844 322.24248,425.8008 C 322.0836,423.58083 321.81738,420.96153 321.50392,418.09747 C 324.33792,418.31646 327.29859,418.55263 330.31294,418.75659 L 330.31294,418.75659 z M 330.48255,436.75894 C 327.47894,436.60221 324.83172,436.44333 322.78996,436.31452 C 322.70622,434.62485 322.60961,432.76987 322.51085,430.70234 C 324.8167,430.93421 327.47894,431.21546 330.43102,431.45807 L 330.48255,436.75894 z M 330.54696,446.1455 C 327.8933,445.94583 325.44361,445.75045 323.33529,445.55293 C 323.26873,444.41718 323.16782,442.96368 323.05189,441.17526 C 325.11298,441.30408 327.66573,441.45651 330.51261,441.60036 L 330.54696,446.1455 L 330.54696,446.1455 z M 342.05258,419.52735 L 342.1041,427.44323 C 339.7317,427.323 337.428,427.17272 335.22521,427.01169 L 335.15865,419.08937 C 337.46235,419.25469 339.76605,419.38565 342.05258,419.52735 z M 342.17066,437.26562 C 339.81758,437.19907 337.50959,437.10031 335.3025,436.99511 L 335.25312,431.85955 C 337.47953,432.01199 339.78108,432.16228 342.13631,432.28465 L 342.17066,437.26562 z M 342.23722,446.86258 C 339.86911,446.73591 337.57614,446.61354 335.38409,446.47828 L 335.35403,441.83438 C 337.56111,441.92455 339.84978,442.0319 342.20716,442.1006 L 342.23722,446.86258 z M 354.75191,420.07268 L 354.81846,427.73093 C 352.19916,427.75454 349.54765,427.73307 346.94767,427.64934 L 346.87682,419.76996 C 349.60991,419.91595 352.24639,420.00613 354.75191,420.07268 z M 354.88502,437.56191 C 352.31295,437.54688 349.66144,437.50394 347.01423,437.42665 L 346.9627,432.47359 C 349.582,432.55732 352.23351,432.59596 354.84637,432.57235 L 354.88502,437.56191 z M 354.95158,447.38644 C 352.28074,447.30271 349.64426,447.2061 347.07649,447.09231 L 347.04858,442.25948 C 349.70009,442.31959 352.3473,442.37327 354.91293,442.40333 L 354.95158,447.38644 z M 354.99452,454.52083 C 352.32798,454.22455 349.71511,453.90035 347.11084,453.53752 L 347.11084,451.92943 C 349.67647,452.0282 352.32798,452.14413 354.97949,452.21928 L 354.99452,454.52083 z M 367.89566,419.90737 L 367.92572,427.24571 C 365.12178,427.41318 362.3393,427.55058 359.64056,427.62573 L 359.58903,420.14997 C 362.35433,420.12636 365.16257,420.03618 367.89566,419.90737 L 367.89566,419.90737 z M 368.00516,437.33433 C 366.62251,437.39659 365.25704,437.4567 363.91947,437.50394 C 362.58835,437.53185 361.17135,437.55547 359.70712,437.56405 L 359.67706,432.465 C 362.36936,432.38127 365.16257,432.24601 367.97295,432.08713 L 368.00516,437.33433 z M 368.09104,447.56679 C 366.16091,447.59041 364.24796,447.59255 362.35433,447.56035 C 361.49984,447.54532 360.64534,447.53029 359.79085,447.51526 L 359.73932,442.40118 C 361.23791,442.38615 362.68496,442.37327 364.07191,442.32818 C 365.35794,442.28954 366.6998,442.23586 368.03951,442.17575 L 368.09104,447.56679 L 368.09104,447.56679 z M 368.12109,455.66516 C 365.35794,455.47408 362.56903,455.25724 359.82091,455.00604 L 359.80588,452.34809 C 360.64534,452.34809 361.46978,452.37815 362.27275,452.39318 C 364.20502,452.42324 366.14588,452.42324 368.10607,452.40177 L 368.12109,455.66516 L 368.12109,455.66516 z M 380.58641,419.02926 L 380.64008,426.29246 C 378.03151,426.53507 375.39933,426.7562 372.76499,426.94514 L 372.71776,419.6347 C 375.46803,419.44577 378.13027,419.24181 380.58641,419.02926 z M 380.70234,436.54854 C 378.03151,436.75894 375.4165,436.93499 372.82725,437.10031 L 372.79934,431.78226 C 375.43153,431.59333 378.06372,431.37434 380.66799,431.13388 L 380.70234,436.54854 L 380.70234,436.54854 z M 380.78393,447.07513 C 378.16033,447.22757 375.53244,447.36497 372.89381,447.44871 L 372.8659,441.92455 C 375.44656,441.77426 378.06372,441.60036 380.73455,441.3964 L 380.78393,447.07513 L 380.78393,447.07513 z M 380.83116,456.1332 C 379.7727,456.16541 378.72284,456.18044 377.60641,456.18688 C 376.0563,456.12676 374.50619,456.03659 372.96037,455.96145 L 372.93246,452.28583 C 375.58396,452.19566 378.19898,452.07543 380.79896,451.90796 L 380.83116,456.1332 z M 392.22943,418.0438 C 392.54503,418.02233 392.8499,417.98368 393.14619,417.96221 L 393.18054,424.89263 C 390.74373,425.21683 388.14589,425.52814 385.45788,425.81583 L 385.41065,418.61274 L 392.22943,418.0438 L 392.22943,418.0438 z M 393.26427,435.3355 C 390.67932,435.62963 388.11369,435.90445 385.53947,436.14061 L 385.49438,430.66154 C 388.16092,430.38244 390.7609,430.07327 393.21274,429.74693 L 393.26427,435.3355 z M 393.34585,446.12832 C 390.84249,446.34946 388.2425,446.56201 385.60817,446.75094 L 385.57597,440.99491 C 388.14589,440.75016 390.70937,440.48608 393.29862,440.19839 L 393.34585,446.12832 z M 393.39738,455.21645 C 391.07436,455.50414 388.50443,455.75534 385.66829,455.93139 L 385.63823,451.59021 C 388.27686,451.40772 390.87898,451.18873 393.38235,450.96974 L 393.39738,455.21645 z M 401.75983,419.34701 C 402.89773,420.77045 403.78228,421.98349 404.4779,423.00545 C 402.58427,423.42196 400.39436,423.80197 398.0241,424.18843 L 397.97687,417.74966 C 399.78032,417.83339 400.90534,418.26493 401.75983,419.34701 z M 406.81595,449.68156 L 406.81595,452.76246 C 405.06617,453.18756 402.20211,453.88532 398.22162,454.54444 L 398.18727,450.52961 C 400.39436,450.3235 402.51771,450.1131 404.5101,449.91558 L 406.81595,449.68156 z M 404.03347,445.10636 C 402.1699,445.28885 400.20972,445.48638 398.15507,445.6839 L 398.12501,439.63803 C 401.04918,439.28163 403.96692,438.90376 406.81595,438.49584 L 406.81595,444.8337 L 404.03347,445.10636 L 404.03347,445.10636 z M 406.74939,427.45826 C 406.80092,427.72234 406.81595,427.89839 406.81595,428.04224 L 406.81595,433.60933 C 403.95189,434.03229 401.01913,434.4123 398.08636,434.78373 L 398.05845,429.04917 C 401.34976,428.54892 404.31473,428.01218 406.74939,427.45826 L 406.74939,427.45826 z M 483.54653,447.93822 C 485.55395,446.60495 487.54849,449.04605 489.309,451.71259 C 490.85912,454.01414 492.89659,457.31618 496.29095,460.17165 C 483.31251,460.05787 470.99749,459.87752 461.3533,459.72509 C 470.96529,455.57284 481.71946,449.15984 483.54653,447.93822 L 483.54653,447.93822 z M 331.46801,332.41187 C 310.83562,306.58596 295.04251,265.69261 289.84254,245.7816 C 290.97829,245.44667 292.01742,245.11389 292.80536,244.90349 C 294.91369,244.31093 303.27399,240.06207 312.13669,235.71446 C 326.11561,274.22896 339.43971,303.20019 350.73493,319.62022 C 368.06742,344.78701 390.44744,370.34455 403.96692,380.38593 L 409.74871,384.7636 C 422.39222,394.42068 442.7133,409.88745 469.51608,424.14334 C 469.45382,424.55126 469.33359,424.96778 469.18545,425.38429 C 409.54904,404.06916 364.36604,373.5693 331.46801,332.41187 L 331.46801,332.41187 z M 323.84412,236.90388 C 325.7721,237.09925 327.36515,236.745 328.60395,236.16961 C 329.92219,237.30536 331.86305,238.71377 334.76146,240.51079 C 338.26747,242.66849 366.44216,259.52866 403.22836,281.47714 L 446.84622,360.89788 C 445.37769,368.69138 445.30899,376.94004 446.44903,383.83396 C 447.88535,392.47552 455.99875,406.4566 464.42776,415.87106 C 441.56037,402.96347 424.0046,389.57496 412.67932,380.92482 L 406.84815,376.5085 C 395.583,368.13102 374.04888,344.96306 354.71756,316.87854 C 343.81953,301.06395 330.942,273.1383 317.35812,235.94204 C 319.7477,236.35855 321.98055,236.72353 323.84412,236.90388 L 323.84412,236.90388 z M 331.56677,233.28194 C 331.614,232.92769 331.74712,232.33727 331.86305,231.59442 C 332.7841,231.93364 333.81894,232.43603 334.95684,233.20035 C 336.04535,233.90456 360.84501,247.75896 395.19225,266.87559 L 400.92037,277.2884 C 365.89683,256.3769 339.40321,240.53226 336.04535,238.45828 C 333.54628,236.91032 331.84802,235.71446 330.67578,234.75261 C 331.22326,234.20728 331.53671,233.67913 331.56677,233.28194 z M 366.17594,214.06011 L 393.00234,262.88222 C 360.51652,244.80258 337.34642,231.87567 336.31158,231.17791 C 334.97187,230.29121 333.50763,229.56553 332.09493,229.11896 C 332.09493,228.34391 332.02408,227.51303 331.82656,226.67142 C 340.44235,223.13535 351.06341,219.26437 366.17594,214.06011 z M 380.50267,209.18219 C 392.67385,205.07718 404.77847,201.82238 418.33874,199.2546 C 425.58477,213.98497 451.86798,267.26848 472.48105,307.07117 C 447.45166,293.18027 422.52533,279.31084 400.93539,267.29854 L 370.82413,212.47135 C 373.86639,211.41719 377.09543,210.32653 380.50267,209.18219 L 380.50267,209.18219 z M 488.79802,191.92914 C 490.36317,191.8454 491.89396,191.80032 493.42475,191.73376 C 498.03644,202.22171 506.86478,223.18044 516.50897,246.18309 C 516.54333,246.89373 516.57553,247.57647 516.62491,248.227 C 516.96843,253.77907 518.5851,279.71233 520.48087,311.02375 C 515.60725,311.44885 510.99555,312.123 506.69732,313.03117 C 501.28481,314.19053 496.21366,315.79646 491.50106,317.63642 C 487.72669,315.53883 483.94158,313.44124 480.13714,311.32003 C 459.67007,272.09917 431.74442,215.54581 423.28107,198.3679 C 441.29415,195.24621 462.04033,193.21088 488.79802,191.92914 L 488.79802,191.92914 z M 514.30189,191.47612 C 514.60032,203.09338 515.18215,218.82638 515.7833,231.97443 C 508.71976,215.17439 502.49999,200.45905 498.629,191.57489 C 504.01361,191.43748 509.25007,191.39883 514.30189,191.47612 L 514.30189,191.47612 z M 521.89358,334.50946 C 513.82741,330.03517 505.51004,325.41489 497.06815,320.7345 C 500.44105,319.5601 503.99428,318.55961 507.71928,317.75665 C 511.73411,316.90215 516.11393,316.27953 520.77715,315.87161 C 521.13999,321.95183 521.52,328.19522 521.89358,334.50946 L 521.89358,334.50946 z M 522.81892,350.03635 C 512.39753,343.82731 501.42651,337.26832 490.2322,330.60197 L 487.17062,324.75577 C 489.37556,323.72523 491.65994,322.73333 494.04951,321.81657 C 503.60139,327.10885 512.98794,332.33028 522.07607,337.37352 C 522.32297,341.58373 522.56987,345.8197 522.81892,350.03635 L 522.81892,350.03635 z M 525.47043,395.6788 C 514.02708,376.00182 502.46564,354.01469 492.37058,334.68551 C 502.89718,340.96325 513.18761,347.11432 522.99712,352.95409 C 523.88811,367.85191 524.72758,382.53075 525.47043,395.6788 L 525.47043,395.6788 z M 482.15959,315.22752 C 484.33877,316.42338 486.49003,317.6128 488.63915,318.81081 C 487.36814,319.34755 486.13149,319.90147 484.92704,320.47686 L 483.34687,317.47754 C 482.969,316.74113 482.57396,315.97681 482.15959,315.22752 L 482.15959,315.22752 z M 450.76229,368.04729 L 476.76425,415.36438 C 475.01447,415.51466 473.1552,415.94621 471.5235,416.22746 C 462.766,408.03891 452.67309,391.80781 451.20457,383.03744 C 450.51539,378.87017 450.30284,373.54783 450.76229,368.04729 z M 409.12394,282.18134 L 403.12531,271.28117 C 424.84406,283.37076 449.6931,297.17793 474.49061,310.96363 C 476.06863,313.97583 477.61875,316.92362 479.08298,319.72757 L 480.61807,322.64315 C 479.9568,322.98237 479.29768,323.33877 478.66862,323.70376 C 454.89306,309.51657 430.69026,295.0739 409.12394,282.18134 z M 476.26616,325.08211 C 467.77489,330.0867 461.28245,335.4348 457.1667,339.27573 C 453.26566,342.88694 450.44669,348.12125 448.56809,354.01469 L 411.40832,286.37867 C 431.73154,298.50261 454.16739,311.88683 476.26616,325.08211 z M 526.0587,406.2054 C 526.57183,415.62845 527.01625,423.90073 527.31253,430.40605 C 511.98316,423.58727 491.30139,422.17242 485.63554,421.49183 L 451.93024,360.13356 C 453.38374,353.27828 456.08034,346.87172 460.44298,342.8118 C 464.76054,338.8034 471.75752,333.07314 481.00881,327.92255 C 482.15959,328.59456 483.29963,329.27729 484.43753,329.96003 L 486.44709,333.76017 C 498.79217,357.41334 512.63799,383.91555 526.0587,406.2054 L 526.0587,406.2054 z M 494.64423,440.21342 C 495.70053,446.26358 501.07011,454.05923 510.38796,460.28544 C 507.91465,460.27042 505.44349,460.2468 502.97662,460.24036 C 494.61202,454.07426 491.63203,447.96183 489.981,442.62232 C 488.20546,436.84267 489.981,430.1935 491.97554,427.97354 C 493.96793,425.75357 504.38933,427.08898 512.82263,429.3068 C 519.67146,431.11026 524.18225,432.77631 527.5487,435.24533 C 527.56373,435.90445 527.59378,436.54854 527.60881,437.14754 C 518.78262,434.48744 511.66756,432.39844 508.49004,431.55683 C 502.61163,429.98954 498.629,429.3068 496.71605,430.34594 C 494.82242,431.37434 493.62441,434.15466 494.64423,440.21342 L 494.64423,440.21342 z M 567.27624,195.9268 C 574.07141,213.22064 606.02477,300.20731 609.90864,313.24372 C 610.77387,316.22586 611.98047,320.40172 613.29656,325.18731 C 604.98349,322.12788 597.18784,319.84136 591.83115,318.40074 C 577.43142,314.55122 562.79981,312.08435 548.94755,311.03878 C 543.60589,298.38238 536.89661,282.38745 529.92969,265.74628 C 529.569,264.85314 529.19113,263.96644 528.82829,263.08833 C 528.16273,250.05193 527.82136,237.50288 527.82136,223.41446 C 527.82136,212.05269 527.34044,201.57118 526.662,191.84755 C 541.37304,192.52814 554.76799,194.02029 567.27624,195.9268 L 567.27624,195.9268 z M 606.75904,203.41972 C 613.77748,204.93334 622.23869,207.50326 631.29891,210.61422 L 637.17302,230.10872 C 646.13018,259.61883 659.69474,304.22214 661.80951,315.83296 L 662.16591,315.76426 C 662.08432,317.52907 662.06929,319.33252 662.11438,321.16604 C 662.3806,329.51775 662.92808,334.61681 664.14756,338.61661 C 660.8627,338.72182 646.54455,339.18342 641.35103,338.92578 C 634.81994,334.4107 626.81818,330.54186 618.89586,327.34717 C 617.12032,320.83111 615.52297,315.22752 614.5096,311.85677 C 610.81896,299.35067 581.35178,219.04538 572.79396,196.80061 C 584.76117,198.78441 595.94474,201.10314 606.75904,203.41972 L 606.75904,203.41972 z M 673.78531,227.11799 L 684.48152,265.97171 C 683.85246,266.57716 683.23843,267.19334 682.66733,267.8224 C 675.43419,275.87998 667.25423,287.87726 663.79975,303.44279 C 658.84454,284.79421 648.88045,252.0529 641.78901,228.70245 L 636.93471,212.59802 C 649.19176,217.02078 662.14229,222.24007 673.78531,227.11799 L 673.78531,227.11799 z M 711.12328,243.09145 C 714.94059,244.52992 717.32803,246.68333 718.79226,248.62848 C 709.84369,250.57579 697.58019,255.49235 688.52641,262.48289 L 679.45117,229.49468 C 695.14767,236.146 707.58078,241.73671 711.12328,243.09145 L 711.12328,243.09145 z M 609.57586,397.201 C 610.32945,396.53544 611.02507,395.99655 611.47593,395.27088 C 612.58591,395.66377 613.71737,395.99011 614.77582,396.15543 C 617.60982,396.59341 619.98223,397.63255 623.53976,397.79142 C 627.11446,397.92883 631.11427,396.30786 632.17273,394.96815 C 633.20757,393.62415 633.80013,391.69617 633.05943,391.24745 C 632.30584,390.80088 630.36712,390.6506 628.73972,390.6506 C 627.11446,390.64845 622.94075,391.54374 619.09553,390.80088 C 615.22025,390.05803 614.47954,386.93204 614.47954,386.04534 C 614.47954,385.30893 615.68614,384.49953 617.35004,384.13669 C 618.00701,385.03627 619.044,385.82635 620.57479,386.19563 C 624.2869,387.08018 628.15575,386.04534 630.97472,387.08233 C 633.80013,388.12576 635.86337,389.7639 636.9068,388.87076 C 637.95667,387.97547 638.85195,385.60522 638.25939,384.55964 C 637.66897,383.51407 635.72167,384.40077 633.80013,383.96278 C 631.87,383.51407 629.48043,382.3182 627.84658,381.4315 C 626.22562,380.54481 624.59177,379.94795 623.24348,379.8041 C 621.90591,379.65167 622.49848,378.4558 623.97774,377.72154 C 625.47847,376.9701 628.88786,376.67596 631.28388,378.75853 C 633.65199,380.84109 635.72167,382.47708 637.05494,381.13737 C 638.40109,379.80195 637.95667,376.97225 636.46237,375.48654 C 634.97667,374.00084 633.05943,371.47171 632.7567,369.68543 C 632.46042,367.90559 633.05943,367.01245 635.57568,366.71617 C 638.11125,366.4113 643.44432,366.57876 645.53762,367.01245 C 647.60945,367.45687 650.28672,368.79229 650.57441,372.51728 C 650.8707,376.22725 650.8707,384.70349 650.57441,385.60522 C 650.28672,386.48333 649.24329,386.48333 649.24329,389.16489 C 649.24329,391.83787 648.64429,392.7396 646.27618,393.92258 C 643.88875,395.11844 640.18952,395.70886 640.18952,397.04213 C 640.18952,398.3754 639.60554,401.30601 642.93334,403.24473 C 641.86845,403.67627 640.61247,403.85232 639.44237,403.73853 C 637.95667,403.5861 631.41055,403.13953 628.73972,403.44225 C 628.88786,402.0918 629.92485,400.90453 631.28388,400.17026 C 632.59353,399.41883 633.05943,397.92883 629.92485,398.83056 C 626.81818,399.71511 625.47847,400.31411 622.79476,400.01139 C 620.13037,399.71511 618.94739,398.0877 616.40967,398.0877 C 613.88912,398.0877 614.19185,398.68671 615.36839,399.12469 C 616.55781,399.5777 617.91255,401.79982 617.75582,403.13953 C 617.60982,404.47924 616.70595,404.47924 616.40967,403.73853 C 616.11553,402.9785 614.77582,401.35969 613.88912,400.61683 C 613.00028,399.87398 610.62573,398.9744 610.32945,399.87613 C 610.02672,400.76068 608.68701,401.51212 608.39288,400.46655 C 608.0966,399.41883 608.39288,398.24014 609.57586,397.201 L 609.57586,397.201 z M 564.47874,360.91291 C 566.99499,367.22285 569.46401,373.44907 571.72047,379.19866 C 561.69197,373.23652 549.61956,366.02699 536.2976,358.07461 C 536.20314,356.9453 536.10652,355.8482 535.97341,354.79404 C 535.72866,352.29497 535.37441,348.76535 534.9901,344.54011 C 545.52314,350.40134 555.47005,355.92335 564.47874,360.91291 z M 625.11563,373.35889 C 624.6068,373.84196 624.11729,374.39588 623.8296,374.88754 C 623.09748,376.22725 622.49848,377.13112 621.1738,377.26638 C 619.82765,377.41667 617.15681,378.4558 616.55781,380.24423 C 616.30017,381.06008 616.36673,382.18939 616.83262,383.26502 C 615.35336,383.53554 613.6594,384.01431 612.18658,384.74213 L 612.22308,384.64981 C 611.57254,384.28053 594.75317,374.96483 569.73882,361.07393 C 565.04769,349.29565 560.07101,337.07938 555.69978,326.90704 C 554.38368,323.86049 552.82928,320.20419 551.08379,316.10563 C 563.99138,317.23279 577.50441,319.57513 590.59664,323.08113 C 599.49369,325.46642 607.65217,328.08787 614.86385,330.89826 C 619.27373,347.0993 624.39855,367.1563 625.11563,373.35889 L 625.11563,373.35889 z M 637.66897,347.40846 C 641.03972,347.97741 645.73085,349.60696 647.21655,350.83288 C 647.40978,351.00678 647.65239,351.19572 647.91217,351.40183 C 648.85254,352.65136 649.5911,353.9009 650.10852,355.13541 C 650.99737,357.27164 651.28506,359.36923 650.96731,361.47541 C 650.67961,362.69274 650.44989,363.61165 650.44989,363.61165 C 647.24661,363.66962 645.35942,363.14146 644.9472,363.00406 C 644.47916,362.85162 644.64233,359.73207 641.95862,360.02835 C 639.30282,360.32249 639.88679,363.59447 637.95667,363.59447 C 634.4571,363.59447 629.92485,362.89027 628.65814,365.88314 C 626.86971,357.46702 623.55479,344.60022 620.49965,333.18478 C 626.56699,335.79764 631.84639,338.53288 636.24768,341.32824 C 636.20474,341.81131 636.20474,342.31155 636.20474,342.75168 C 636.20474,344.4714 636.20474,347.15941 637.66897,347.40846 L 637.66897,347.40846 z M 531.98649,310.47627 C 531.32737,302.25123 530.70045,294.082 530.241,286.97553 C 530.01986,283.74004 529.81161,280.60761 529.63555,277.50953 C 534.68523,289.59698 539.50088,301.0253 543.56081,310.69097 C 539.634,310.49989 535.75871,310.42474 531.98649,310.47627 z M 545.67772,315.69556 C 547.80751,320.75597 549.70758,325.20234 551.26843,328.82213 C 554.9376,337.37352 559.04261,347.3784 563.05959,357.35538 C 554.33216,352.52898 544.79746,347.22811 534.70026,341.61593 C 533.9982,334.08651 533.19308,324.82448 532.40085,315.34989 C 536.69909,315.31769 541.14332,315.41645 545.67772,315.69556 L 545.67772,315.69556 z M 578.53281,414.43903 C 579.56765,415.32573 579.72438,416.97031 578.68095,419.49944 C 577.64397,422.02857 572.74887,436.14705 570.05657,439.26875 C 567.39433,442.38615 566.05462,444.47086 567.53388,445.81916 C 568.82206,446.94632 571.0635,448.53937 571.30611,450.46949 C 570.41082,450.44588 569.90199,450.42441 569.90199,450.42441 C 568.29605,449.89411 566.64718,449.35736 564.95322,448.80345 C 558.60034,444.49233 551.11385,435.55664 543.14859,423.96085 C 541.8969,411.04467 539.19816,392.90706 538.40593,388.08926 C 537.65234,383.55915 537.326,371.56403 536.53592,361.0267 C 550.47835,369.35694 562.98445,376.81122 573.15465,382.86353 C 577.24678,393.39013 580.51447,401.92649 582.00876,405.83612 C 581.17359,406.2054 580.52949,406.76791 580.01851,407.89507 C 579.13182,409.83378 577.50441,413.54589 578.53281,414.43903 L 578.53281,414.43903 z M 594.56854,402.24639 C 594.71668,404.1851 594.56854,404.47924 592.94757,404.7841 C 591.83115,404.97948 589.12382,404.90434 586.85447,404.97948 C 585.78098,402.16051 583.25185,395.52851 579.89399,386.8934 C 586.34349,390.72574 591.43181,393.77015 594.84979,395.81621 C 594.32378,397.64757 594.45689,400.59537 594.56854,402.24639 L 594.56854,402.24639 z M 606.75904,393.33002 C 606.98661,393.43522 607.26787,393.57262 607.58562,393.70144 C 607.2829,394.28542 606.70536,394.67187 605.27977,394.67187 C 603.61372,394.66973 599.34555,393.94405 596.898,394.21672 C 593.07424,391.93663 586.73639,388.15152 578.4727,383.22637 C 576.25488,377.54549 573.76224,371.1926 571.15153,364.62502 C 591.25576,375.77424 605.65549,383.75667 610.04175,386.19563 C 609.67247,386.54988 609.36975,386.95351 609.14003,387.37861 C 607.34945,390.80088 605.12948,392.58072 606.75904,393.33002 L 606.75904,393.33002 z M 668.98469,347.80136 C 669.9315,349.13462 671.65552,351.4233 673.91843,354.40114 C 674.16962,357.41334 673.96995,361.83181 672.46063,367.04251 C 671.1746,367.27653 670.22778,368.04944 670.22778,368.9576 C 670.22778,369.60814 670.56056,370.25223 671.25618,370.71383 C 668.71846,377.72154 664.94623,384.98474 658.46668,387.82518 C 658.46668,387.82518 658.00078,376.08555 657.85264,374.14683 C 657.7045,372.221 657.7045,370.87485 655.9311,370.13844 C 655.39651,369.91086 655.07876,369.23027 654.76745,368.39725 C 655.39651,368.715 655.94399,368.68494 656.2553,367.98073 C 657.48981,365.28199 657.48981,361.36162 657.96429,358.68006 C 658.46668,355.97487 659.93091,352.79521 657.96429,351.07549 C 656.01269,349.36435 653.82063,347.90226 652.57968,346.92539 C 651.36665,345.93993 650.64097,344.71401 653.31824,344.22021 C 655.45018,343.83375 662.69836,344.05489 666.64019,344.28247 C 667.33581,345.43969 668.0894,346.57758 668.98469,347.80136 L 668.98469,347.80136 z M 677.25482,358.70797 C 678.66752,360.52001 680.21334,362.50381 681.87725,364.59496 C 681.74413,365.80585 681.35124,367.24647 680.24125,367.24647 C 679.09692,367.24432 677.51245,367.24647 676.01172,367.17133 C 676.64078,364.51767 677.09809,361.67937 677.25482,358.70797 z M 853.51467,319.6653 C 852.32525,316.5522 845.26601,316.20439 841.63119,318.28051 C 839.54863,319.46778 836.47202,321.99906 832.9424,325.35478 C 829.38272,325.01985 825.80801,323.28724 822.67988,319.97662 C 818.7638,315.81149 809.94834,309.44143 801.13717,309.44143 C 792.32815,309.43928 783.03821,315.07723 777.16625,319.72757 C 771.28569,324.39079 757.34327,342.75168 755.38308,344.71401 C 753.4229,346.65917 742.4025,348.38748 740.19756,349.12174 C 738.00121,349.86245 737.26909,350.83288 737.76504,351.80975 C 738.2524,352.79306 739.47403,355.72582 739.47403,355.72582 C 741.18302,355.48966 747.06357,355.4918 750.99038,355.97702 C 754.88713,356.47512 760.02913,356.95389 760.02913,356.95389 C 762.47023,354.51279 766.64824,351.32453 769.57026,351.32453 C 772.50732,351.32453 773.49707,355.72582 773.49707,357.9372 C 773.49707,360.14 773.74183,378.02426 773.74183,378.02426 C 772.0264,379.73325 769.82146,382.6746 769.32551,384.38574 C 769.32551,384.38574 758.31155,384.38574 756.1152,384.38574 C 753.91241,384.38574 753.4229,387.33353 751.95222,387.57399 C 750.48799,387.8166 750.24323,389.53632 750.24323,389.53632 C 750.24323,389.53417 750.24323,396.3916 750.24323,397.86871 C 750.24323,399.32865 750.99038,399.57985 753.4229,399.57985 C 755.87259,399.5777 762.23192,400.06506 762.23192,400.06506 L 763.5201,402.63713 C 761.10046,404.63811 758.57133,406.66056 755.95203,408.69803 C 751.35966,405.6751 743.12817,397.61752 741.18302,393.95264 C 738.98667,389.77678 735.5601,388.55086 733.83823,387.8166 C 732.12924,387.08018 730.9162,384.63693 729.6817,383.90052 C 728.46007,383.16626 726.25513,385.6138 726.00393,389.28727 C 725.80427,392.35314 725.77421,404.07131 725.76133,407.91009 C 702.52896,384.04437 677.89032,351.89348 672.89861,344.97809 C 668.54885,338.93437 667.38734,335.47345 666.94292,321.02863 C 666.25589,298.24498 677.07018,281.28176 686.26351,271.06433 C 694.63669,261.73145 710.87209,255.05222 721.0337,253.09848 C 721.08522,253.27024 721.10025,253.37758 721.10025,253.37758 C 729.57864,252.46727 734.71849,250.34821 736.52194,248.52972 C 738.34258,246.71983 737.43226,242.47956 735.01477,241.26008 C 732.58655,240.06207 706.8916,226.12609 671.80366,211.9024 C 639.01512,198.61051 593.57019,184.27304 525.59925,179.23624 C 525.15483,174.47856 524.6782,169.92698 524.18225,165.58795 C 522.3745,149.24306 520.01927,142.00992 519.7187,139.8973 C 519.40953,137.77609 516.69147,137.16206 515.17785,137.46478 C 513.66209,137.77609 512.93427,138.38154 513.06953,140.50275 C 514.02493,156.89272 514.23748,166.83749 514.17092,178.48695 C 513.08456,178.42469 512.00034,178.36457 510.87962,178.28943 C 434.65572,174.35618 377.79105,193.74118 354.1937,201.90396 C 330.61352,210.09036 287.3542,233.99688 281.90519,237.02626 C 276.47121,240.06207 278.41207,243.16874 279.4877,244.90349 C 280.5891,246.69621 282.75969,247.03114 285.11706,246.78853 C 290.07227,265.75272 305.45317,307.5843 327.71296,335.4348 C 360.87507,376.92501 406.20621,407.75981 465.88126,429.34545 C 460.8552,434.03229 443.11049,452.4533 436.46776,458.98223 C 432.23823,458.6881 427.0855,458.28661 421.37241,457.88513 L 411.65737,452.40821 L 411.65737,428.04224 C 411.65737,425.22327 409.76374,421.61206 405.53206,416.32622 C 402.29872,412.31138 397.67629,412.71287 391.79574,413.22814 L 383.63081,413.90873 C 376.02409,414.58932 365.58767,415.49964 355.94992,415.28064 C 345.43191,415.04448 332.12498,414.09122 320.91565,413.20452 C 318.64201,395.28376 314.53915,371.61555 313.88217,369.92804 C 313.02768,367.67586 309.56676,368.36719 309.2211,370.44975 C 308.87759,372.52587 306.80361,393.81523 306.2776,409.74361 C 305.76448,425.67198 307.32747,433.46549 307.65811,441.07864 C 307.92004,446.62856 307.24589,452.08187 306.12732,456.9147 C 280.17473,473.84142 210.76961,481.1218 196.81001,482.96175 C 182.17196,484.87899 178.8141,490.65005 178.57364,493.53558 C 178.33747,496.41252 179.77594,503.60917 189.13459,505.29883 C 197.12347,506.72227 227.86809,509.1827 271.00717,512.74238 C 261.45959,515.66655 252.12027,520.1344 239.24274,523.18095 C 228.34901,525.75517 202.0937,527.51998 197.76112,527.51998 C 190.94878,527.51783 192.4946,532.16388 197.1385,532.77576 C 204.86759,533.81275 224.24615,533.01193 240.4751,530.30031 C 255.33858,527.8227 272.05704,522.86964 282.89495,522.86964 C 293.71568,522.86749 300.79424,528.42171 301.46624,538.04872 C 302.07598,547.03165 294.94589,551.6734 290.63048,552.60518 C 288.17864,553.13334 286.60062,552.30246 288.14644,548.89522 C 289.6944,545.48368 288.14644,541.1468 283.18908,540.52418 C 278.2532,539.89512 273.17776,543.30451 272.66892,547.66071 C 272.05704,552.91435 275.76271,560.03585 288.75832,560.34716 C 292.80536,560.45022 296.92111,559.65798 300.79424,558.22595 C 307.79122,558.67038 319.80996,557.68062 337.06516,552.30246 C 360.89439,544.86536 394.31414,529.68627 410.73632,532.16388 C 427.13488,534.63933 428.97913,543.31954 428.68284,548.57532 C 428.36939,553.84828 423.72764,559.73957 418.14337,559.11909 C 415.01738,558.77128 413.20533,555.40054 414.12209,553.22566 C 415.04743,551.06795 411.65522,547.96343 409.18835,547.96343 C 406.69786,547.96129 401.7448,552.30246 401.7448,556.9528 C 401.7448,561.58596 405.30233,565.93573 408.56143,567.79071 C 412.41525,569.98706 421.89627,571.68531 430.69026,566.59485 C 439.05271,566.87395 452.17714,565.57289 464.57805,561.58811 C 480.99164,556.32374 504.20898,546.72034 517.51805,540.21502 C 528.59857,534.8068 542.2898,529.64119 552.18733,532.47304 C 560.85465,534.94206 563.63713,543.31954 562.40906,548.2726 C 560.70651,555.05703 556.82479,560.03585 551.2534,559.11909 C 552.79278,555.08923 550.32162,548.57532 545.07013,548.2726 C 539.79072,547.96129 533.59886,554.46017 534.22792,560.34716 C 534.85699,566.24489 540.42623,574.91865 552.49006,574.28959 C 560.86968,573.86449 570.60405,567.20888 575.46264,556.74025 C 583.39141,555.49071 594.0275,552.04483 602.02496,547.34081 C 612.54083,541.14465 634.2145,527.51998 645.04167,519.76512 C 655.87743,512.02314 665.78141,507.68412 675.36763,508.00187 C 684.97532,508.30459 692.09897,512.64577 692.70442,518.83978 C 693.43868,525.95054 689.62137,529.49734 687.14376,529.37496 C 680.64274,529.0658 683.12678,519.76512 676.308,521.93786 C 669.49567,524.10415 668.25901,532.16388 671.67055,538.35789 C 675.07135,544.54546 686.52114,548.2726 696.11596,543.93357 C 703.3126,540.68306 707.97153,534.77674 709.99827,527.7862 C 715.17676,526.04286 720.61933,523.27971 725.5316,519.15109 C 737.00287,509.52407 749.39947,495.68684 760.07421,481.69074 C 762.42515,492.8829 764.65155,503.00372 766.07929,508.30459 C 770.41402,524.41546 774.74876,535.88243 779.70397,536.49646 C 784.6377,537.11479 793.63136,534.01886 789.30307,521.00607 C 788.67616,519.1425 787.62414,516.03154 786.26511,512.06179 C 789.61438,518.03681 792.69099,521.79401 796.41169,523.48367 C 803.21759,526.58175 807.86149,524.10415 808.79327,521.31738 C 809.74223,518.52847 809.42233,512.33446 803.8445,504.28331 C 800.81298,499.89705 788.08359,477.01679 777.09969,457.04352 C 787.37295,442.27451 797.60326,438.35843 805.09619,439.2301 C 813.12801,440.1533 820.55867,447.89528 819.62689,453.78012 C 818.71228,459.66282 815.60561,464.61803 812.81025,464.31531 C 810.02993,464.01044 809.42233,455.64155 803.8445,457.19595 C 798.26882,458.73963 796.41169,464.93578 798.89788,470.51147 C 801.3669,476.085 810.31118,480.12989 821.18129,475.1618 C 832.01276,470.19801 837.26854,458.11271 834.79953,444.17458 C 832.33051,430.23859 814.36251,422.49017 798.57154,424.05102 C 794.3184,424.45894 789.82908,425.88453 785.39773,428.16462 C 786.35313,427.14695 787.30639,426.14217 788.21026,425.13524 C 789.00035,424.70155 789.79902,424.2786 790.62131,423.82344 C 823.91439,405.44967 848.62817,383.90052 848.62817,383.90052 C 848.62817,383.90052 849.35599,380.95488 849.12197,377.28141 C 848.87077,373.60794 848.38556,368.9576 846.42537,367.24647 C 844.46304,365.53319 839.32105,365.76935 837.61635,366.75481 C 835.90522,367.72954 829.29899,369.94306 826.1043,369.94306 C 824.4683,369.94092 822.19466,369.94306 820.33968,369.94306 C 825.43015,357.31458 829.88297,343.28842 833.13992,339.84254 C 836.97226,335.76758 848.96953,323.27222 850.40156,323.27222 C 851.84003,323.27007 852.32525,325.1959 853.04448,324.47667 C 853.77231,323.75528 854.71912,322.79344 853.51467,319.6653 L 853.51467,319.6653 z "
       style="fill:#5181ba;fill-rule:evenodd"
       id="path12" />
    <g
       id="g2382">
      <path
         d="M 276.16205,685.1291 L 276.16205,688.32379 C 276.16205,707.13769 283.68932,729.34596 316.99313,729.34596 C 344.08576,729.34596 361.39249,717.49253 361.39249,688.8863 C 361.39249,670.45026 353.11592,660.10401 334.11523,653.33461 L 319.62961,648.06165 C 305.3265,642.60834 299.49532,636.77717 299.49532,625.29517 C 299.49532,610.9942 308.3344,605.91232 317.55779,605.91232 C 330.91624,605.91232 336.37169,613.07032 336.37169,625.29517 L 336.37169,628.11844 L 357.81993,628.11844 L 357.81993,625.11053 C 357.81993,611.18313 354.24522,589.7349 319.81425,589.7349 C 294.60238,589.73275 278.04494,603.28443 278.04494,627.74057 C 278.04494,646.93234 286.51044,657.09825 306.07794,664.61909 L 320.75677,669.70097 C 332.79913,673.27567 339.9421,679.47827 339.9421,693.59675 C 339.94425,703.56514 333.17271,713.16209 319.62961,713.16209 C 304.76184,713.15995 297.61243,704.88338 297.61243,688.51487 L 297.61243,685.1291 L 276.16205,685.1291 L 276.16205,685.1291 z "
         style="fill:#131a20;fill-rule:evenodd"
         id="path14" />
      <polygon
         points="15.8455,131.384 16.8446,131.384 16.8446,125.127 15.8455,125.127 15.8455,131.384 "
         transform="matrix(21.469707,0,0,21.469707,58.976637,-2094.0601)"
         style="fill:#131a20;fill-rule:evenodd"
         id="polygon16" />
      <path
         d="M 458.43556,685.1291 L 458.43556,688.32379 C 458.43556,707.13769 465.95855,729.34596 499.26451,729.34596 C 526.35284,729.34596 543.66601,717.49253 543.66601,688.8863 C 543.66601,670.45026 535.38085,660.10401 516.3823,653.33461 L 501.89669,648.06165 C 487.59787,642.60834 481.76455,636.77717 481.76455,625.29517 C 481.76455,610.9942 490.60577,605.91232 499.82701,605.91232 C 513.18546,605.91232 518.63877,613.07032 518.63877,625.29517 L 518.63877,628.11844 L 540.08486,628.11844 L 540.08486,625.11053 C 540.08486,611.18313 536.52089,589.7349 502.08348,589.7349 C 476.8716,589.73275 460.31416,603.28443 460.31416,627.74057 C 460.31416,646.93234 468.77967,657.09825 488.35145,664.61909 L 503.026,669.70097 C 515.06621,673.27567 522.21133,679.47827 522.21133,693.59675 C 522.21133,703.56514 515.44408,713.16209 501.89669,713.16209 C 487.03107,713.15995 479.88165,704.88338 479.88165,688.51487 L 479.88165,685.1291 L 458.43556,685.1291 L 458.43556,685.1291 z "
         style="fill:#131a20;fill-rule:evenodd"
         id="path18" />
      <path
         d="M 577.49797,685.1291 L 577.49797,688.32379 C 577.49797,707.13769 585.01237,729.34596 618.32691,729.34596 C 645.4131,729.34596 662.71983,717.49253 662.71983,688.8863 C 662.71983,670.45026 654.4497,660.10401 635.44256,653.33461 L 620.9591,648.06165 C 606.65383,642.60834 600.82695,636.77717 600.82695,625.29517 C 600.82695,610.9942 609.67247,605.91232 618.88727,605.91232 C 632.24572,605.91232 637.70547,613.07032 637.70547,625.29517 L 637.70547,628.11844 L 659.15585,628.11844 L 659.15585,625.11053 C 659.15585,611.18313 655.57471,589.7349 621.15233,589.7349 C 595.92971,589.73275 579.37657,603.28443 579.37657,627.74057 C 579.37657,646.93234 587.83778,657.09825 607.40957,664.61909 L 622.08411,669.70097 C 634.12432,673.27567 641.26944,679.47827 641.26944,693.59675 C 641.26944,703.56514 634.50863,713.16209 620.9591,713.16209 C 606.09347,713.15995 598.94621,704.88338 598.94621,688.51487 L 598.94621,685.1291 L 577.49797,685.1291 L 577.49797,685.1291 z "
         style="fill:#131a20;fill-rule:evenodd"
         id="path20" />
      <path
         d="M 688.65309,726.71592 L 711.04814,726.71592 L 719.70258,693.78139 L 759.0222,693.78139 L 767.29233,726.71592 L 789.68953,726.71592 L 754.31818,592.37352 L 726.84769,592.37352 L 688.65309,726.71592 L 688.65309,726.71592 z M 723.653,676.66359 L 739.64364,610.43813 L 740.01292,610.43813 L 755.4432,676.66359 L 723.653,676.66359 L 723.653,676.66359 z "
         style="fill:#131a20;fill-rule:evenodd"
         id="path22" />
    </g>
    <g
       id="g2351">
      <path
         d="M 147.9471,382.06271 L 148.85742,374.69431 L 124.20161,371.66493 C 119.4203,371.07237 117.38068,367.91632 117.74137,364.97712 C 118.11709,361.90266 120.13954,360.68962 124.91869,361.28863 L 150.12198,364.37812 L 151.02801,357.00112 L 126.37219,353.97175 C 121.59089,353.38777 119.55341,350.22314 119.92269,347.22382 C 120.29197,344.21591 122.31227,343.00502 127.09358,343.59544 L 152.29257,346.68493 L 153.20074,339.31653 L 125.2665,335.88352 C 118.16218,335.01185 115.04048,338.44486 114.40069,343.63409 C 113.8575,348.06973 115.56864,351.05616 118.85994,353.60891 C 115.65452,354.31956 112.85916,356.19816 112.21078,361.45609 C 111.78567,364.93848 113.34008,368.66562 116.39093,370.91564 L 116.36516,371.11102 L 112.06263,370.5893 L 111.20599,377.55622 L 147.9471,382.06271 L 147.9471,382.06271 z "
         style="fill:#131a20;fill-rule:evenodd"
         id="path26" />
      <path
         d="M 150.13701,307.71312 C 155.25968,309.48008 157.72226,312.6533 156.26661,316.88712 C 155.25539,319.80915 152.42998,320.44036 149.51224,319.43128 C 146.91656,318.54673 145.13457,316.9773 144.85546,314.62207 C 144.59783,312.21317 145.10022,308.01799 144.30155,305.70785 L 150.13701,307.71312 z M 137.72967,296.01857 C 131.50989,293.87589 127.40059,297.99808 125.27294,304.1792 C 122.09328,313.41118 125.13769,317.88761 132.62203,320.45539 L 134.90426,313.82554 C 131.49057,312.64471 128.36244,310.8434 129.97481,306.15442 C 131.25441,302.45089 133.66975,302.04297 136.8902,303.1551 C 139.95608,304.20712 140.13428,306.01916 139.97111,308.79734 L 139.5825,314.77451 C 139.50092,320.06035 139.96037,324.00648 147.74099,326.67946 C 154.42666,328.98101 158.76139,326.55064 160.68508,320.95563 C 162.09779,316.85707 161.34635,313.54 158.5467,310.46554 L 158.59178,310.33457 C 162.04197,311.30285 164.17605,309.13227 165.24954,306.00413 C 165.72187,304.6408 165.68967,303.24742 165.59305,302.27055 L 161.03933,300.70111 C 161.07798,301.00384 160.98351,301.48261 160.82893,301.93562 C 160.47038,302.97261 159.03621,303.35262 157.73729,302.91249 L 137.72967,296.01857 z "
         style="fill:#131a20;fill-rule:evenodd"
         id="path28" />
      <path
         d="M 166.28867,261.89676 C 159.64809,257.59423 155.90378,253.76404 158.67337,249.50016 C 161.48375,245.16542 166.52699,247.12775 173.56905,251.70295 C 182.16767,257.28292 183.7736,260.62576 181.45058,264.20046 C 178.6037,268.58458 173.73222,266.73818 166.28867,261.89676 z M 188.49264,284.68686 L 192.53754,278.4542 L 178.74754,269.50133 L 178.82054,269.38754 C 182.34157,270.03164 185.66294,268.57814 187.83782,265.23101 C 190.6117,260.95854 191.17206,253.77907 178.12922,245.31142 C 167.45233,238.38099 159.51927,237.32683 154.91188,244.42472 C 152.7005,247.83196 153.0483,251.34011 154.99346,254.40598 L 154.91832,254.51977 L 151.10959,252.05076 L 147.28584,257.9356 L 188.49264,284.68686 L 188.49264,284.68686 z "
         style="fill:#131a20;fill-rule:evenodd"
         id="path30" />
      <path
         d="M 186.35426,228.9837 L 185.78102,228.49205 C 182.14835,225.33385 179.56339,221.17732 182.67865,217.58544 C 185.43321,214.4208 189.12385,215.63169 192.65562,218.69113 L 194.16279,220.00078 L 186.35426,228.9837 L 186.35426,228.9837 z M 202.88164,217.73572 L 199.91882,215.16151 C 192.13176,208.39211 185.6522,206.40616 178.88066,214.20181 C 171.25032,222.97004 177.68909,231.30243 185.0124,237.66605 C 197.94146,248.9033 204.20847,244.42042 208.18037,239.84737 C 213.46621,233.78004 212.81782,226.65209 206.63884,221.28252 L 202.03574,226.5748 C 203.69964,228.01542 207.86047,232.4618 204.38667,236.4616 C 200.73038,240.66322 195.54759,236.98332 191.80542,233.72636 L 190.19734,232.33298 L 202.88164,217.73572 L 202.88164,217.73572 z "
         style="fill:#131a20;fill-rule:evenodd"
         id="path32" />
      <path
         d="M 222.59727,223.05806 L 228.03126,217.98263 L 212.91873,201.78158 C 208.22545,196.74479 210.16417,192.87595 212.63104,190.58084 C 213.53706,189.73064 214.67925,189.04361 215.1752,188.76235 L 210.01173,183.2339 C 209.56731,183.45934 209.12074,183.68906 208.51744,184.24942 C 205.44942,187.11133 205.21969,190.89859 206.82777,195.04868 L 206.72687,195.13886 L 202.78503,190.91362 L 197.3489,195.98047 L 222.59727,223.05806 L 222.59727,223.05806 z "
         style="fill:#131a20;fill-rule:evenodd"
         id="path34" />
      <path
         d="M 259.07645,160.36652 L 258.12749,159.01822 C 255.48242,155.23955 250.57874,151.95254 242.85609,157.35861 C 236.59982,161.73629 234.33906,167.26688 238.32598,172.9628 C 241.72034,177.80851 245.2564,178.77894 250.93085,177.16657 L 257.10983,175.43825 C 259.76563,174.66534 261.97701,175.30299 263.55503,177.55946 C 265.48731,180.32476 265.0343,183.15661 261.71079,185.48178 C 258.21552,187.92718 255.63486,186.88375 253.18517,183.38419 L 252.51746,182.42879 L 247.10494,186.21605 L 247.89288,187.34535 C 251.99789,193.20658 256.79422,195.13886 264.46535,189.77572 C 270.60354,185.47319 273.40748,179.39297 268.86879,172.90912 C 265.51307,168.12138 261.73226,167.16168 256.15443,168.79767 L 251.32159,170.16744 C 247.31535,171.28816 245.57415,171.07561 243.91884,168.71394 C 241.94792,165.89497 243.07508,163.42595 245.49257,161.72126 C 248.65076,159.51847 251.07469,161.17593 252.77295,163.60845 L 253.32687,164.39424 L 259.07645,160.36652 L 259.07645,160.36652 z "
         style="fill:#131a20;fill-rule:evenodd"
         id="path36" />
      <path
         d="M 275.82712,154.61264 L 275.44925,153.95996 C 273.0425,149.78839 271.95398,145.01783 276.06329,142.63898 C 279.69811,140.54139 282.79833,142.88803 285.13853,146.93292 L 286.13687,148.66768 L 275.82712,154.61264 L 275.82712,154.61264 z M 295.11765,149.35685 L 293.15747,145.96464 C 287.994,137.01821 282.51708,133.03558 273.57709,138.20119 C 263.5078,144.00875 266.88069,153.98572 271.73285,162.38467 C 280.29711,177.22239 287.68698,175.01745 292.93203,171.98807 C 299.9011,167.9668 301.61009,161.02135 297.52011,153.93205 L 291.43989,157.43805 C 292.54343,159.34671 295.03177,164.89877 290.44584,167.55028 C 285.61945,170.3349 281.91807,165.165 279.44047,160.8775 L 278.37557,159.02896 L 295.11765,149.35685 L 295.11765,149.35685 z "
         style="fill:#131a20;fill-rule:evenodd"
         id="path38" />
      <path
         d="M 310.06915,139.64825 C 307.2695,133.36192 305.84821,127.96873 310.74974,125.78741 C 315.46449,123.68767 318.86959,129.47591 321.33431,135.01294 C 323.71101,140.35246 326.11561,147.26785 320.83407,149.61664 C 315.80371,151.85593 312.64337,145.43434 310.06915,139.64825 z M 313.45278,163.15114 C 314.68514,165.91429 318.44449,171.32251 328.50519,166.83964 C 337.61694,162.78616 338.92659,156.25078 335.26171,148.01714 L 320.93068,115.83405 L 314.51768,118.68308 L 316.36622,122.83318 L 316.2374,122.8847 C 314.51768,120.72056 310.54149,119.40232 306.58033,121.16713 C 296.96619,125.44604 300.28326,135.94473 303.5896,143.36036 C 307.70105,152.59878 313.37119,159.41756 321.29352,155.88794 C 324.56335,154.44088 326.94649,151.33421 326.88852,147.82177 L 327.01734,147.7681 L 329.45201,153.23643 C 331.18676,157.12889 330.08107,160.56833 326.55789,162.13562 C 323.5414,163.47533 320.78683,162.3632 319.86149,160.29567 L 313.45278,163.15114 z "
         style="fill:#131a20;fill-rule:evenodd"
         id="path40" />
      <path
         d="M 362.12246,139.88442 L 368.71581,137.48411 L 356.05727,102.69459 L 349.07532,105.2409 L 357.92084,129.5532 C 359.33354,133.43063 357.32613,136.3548 354.34828,137.43902 C 351.37472,138.52109 349.15905,137.87056 347.74634,133.98454 L 338.66466,109.02601 L 331.67841,111.57232 L 340.52823,135.88461 C 343.80021,144.86754 348.165,145.98826 353.33491,144.1118 C 357.21448,142.6948 359.82949,139.61819 360.44567,135.88461 L 360.6389,135.80947 L 362.12246,139.88442 L 362.12246,139.88442 z "
         style="fill:#131a20;fill-rule:evenodd"
         id="path42" />
      <path
         d="M 366.6998,94.068064 L 373.84062,92.01556 L 371.79241,84.874736 L 364.65159,86.918652 L 366.6998,94.068064 z M 378.34497,134.68016 L 385.48794,132.62766 L 375.28339,97.043766 L 368.14256,99.089829 L 378.34497,134.68016 z "
         style="fill:#131a20;fill-rule:evenodd"
         id="path44" />
      <path
         d="M 394.37855,130.00835 L 401.59022,128.21563 L 396.22709,106.72016 C 394.56319,100.03879 398.13575,97.59339 401.40773,96.775394 C 402.61003,96.479112 403.94115,96.427585 404.5101,96.427585 L 402.68088,89.078504 C 402.17849,89.063476 401.67825,89.050594 400.87957,89.254556 C 396.80462,90.261485 394.76715,93.464765 394.16385,97.872496 L 394.03074,97.902554 L 392.63306,92.296813 L 385.42138,94.093828 L 394.37855,130.00835 L 394.37855,130.00835 z "
         style="fill:#131a20;fill-rule:evenodd"
         id="path46" />
      <polygon
         points="17.8659,103.13 18.2657,103.074 18.4764,101.303 18.1113,101.354 18.0307,102.738 18.0243,102.739 17.5369,101.435 17.1687,101.487 17.8659,103.13 "
         transform="matrix(21.469707,0,0,21.469707,58.976637,-2094.0601)"
         style="fill:#131a20;fill-rule:evenodd"
         id="polygon48" />
      <path
         d="M 462.47831,75.067374 L 469.87033,74.285876 L 469.09098,66.896003 L 461.70111,67.675353 L 462.47831,75.067374 z M 466.89678,117.08144 L 474.28665,116.29995 L 470.41781,79.490133 L 463.02579,80.271631 L 466.89678,117.08144 z "
         style="fill:#131a20;fill-rule:evenodd"
         id="path50" />
      <path
         d="M 483.65388,115.79541 L 491.06522,115.28228 L 489.5237,93.181365 C 489.04278,86.311059 492.98462,84.524779 496.34677,84.29076 C 497.58128,84.19844 498.90811,84.380932 499.46632,84.479693 L 498.93817,76.935238 C 498.44651,76.82789 497.95915,76.722688 497.13471,76.78495 C 492.94812,77.076938 490.38464,79.874441 489.02346,84.108267 L 488.8882,84.114708 L 488.48242,78.352239 L 481.07322,78.873953 L 483.65388,115.79541 L 483.65388,115.79541 z "
         style="fill:#131a20;fill-rule:evenodd"
         id="path52" />
      <path
         d="M 503.44036,83.075574 L 508.53298,82.978961 L 508.93446,105.95584 C 509.06757,113.5325 511.5688,114.85718 516.58627,114.77345 C 518.92861,114.72836 520.98756,114.49434 522.56343,114.04777 L 522.46682,108.54723 C 521.78193,108.69108 520.88879,108.7834 519.78525,108.79843 C 517.24109,108.84352 516.39733,107.828 516.3501,104.93603 L 515.9615,82.847995 L 522.01595,82.749235 L 521.91934,77.244402 L 515.86703,77.349603 L 515.68454,66.823006 L 508.25173,66.949677 L 508.43636,77.478422 L 503.3459,77.568594 L 503.44036,83.075574 z "
         style="fill:#131a20;fill-rule:evenodd"
         id="path54" />
      <path
         d="M 547.82254,115.43042 L 554.83455,115.79111 L 556.77326,78.831013 L 549.34689,78.435971 L 548.00074,104.27262 C 547.7796,108.39265 544.78887,110.30346 541.62424,110.14243 C 538.4596,109.97712 536.68406,108.50644 536.9052,104.37996 L 538.2814,77.860582 L 530.87006,77.467687 L 529.50888,103.30219 C 529.00864,112.85406 532.58549,115.59574 538.08818,115.88343 C 542.20177,116.09598 545.81083,114.28609 547.8526,111.08281 L 548.04368,111.09569 L 547.82254,115.43042 L 547.82254,115.43042 z "
         style="fill:#131a20;fill-rule:evenodd"
         id="path56" />
      <path
         d="M 564.0794,84.578454 L 569.13981,85.117343 L 566.7438,107.96755 C 565.94512,115.49483 568.266,117.12653 573.26629,117.64824 C 575.58931,117.89085 577.66114,117.90588 579.2864,117.66327 L 579.86393,112.18635 C 579.15329,112.24647 578.26659,112.225 577.17163,112.11121 C 574.6425,111.83854 573.91682,110.73285 574.22813,107.85591 L 576.53613,85.890253 L 582.55623,86.525756 L 583.13377,81.050981 L 577.11366,80.419772 L 578.20647,69.944701 L 570.81016,69.171792 L 569.7152,79.640421 L 564.65694,79.110119 L 564.0794,84.578454 L 564.0794,84.578454 z "
         style="fill:#131a20;fill-rule:evenodd"
         id="path58" />
      <path
         d="M 595.11601,97.030884 L 595.2341,96.281591 C 595.98768,91.517463 598.14754,87.126908 602.83867,87.867613 C 606.98017,88.524586 607.92699,92.29896 607.18628,96.919241 L 606.87712,98.894454 L 595.11601,97.030884 L 595.11601,97.030884 z M 613.41464,105.08417 L 614.03727,101.21318 C 615.64749,91.010778 613.90201,84.466811 603.71034,82.854436 C 592.21546,81.035952 588.56131,90.905576 587.05414,100.48751 C 584.37687,117.40564 591.49193,120.35343 597.48197,121.30024 C 605.42577,122.55622 611.12168,118.23222 612.40986,110.15102 L 605.47085,109.05177 C 605.12948,111.22451 603.57722,117.1115 598.34076,116.27848 C 592.83808,115.40681 593.22238,109.06036 593.991,104.16741 L 594.33237,102.0548 L 613.41464,105.08417 L 613.41464,105.08417 z "
         style="fill:#131a20;fill-rule:evenodd"
         id="path60" />
      <path
         d="M 648.9191,107.27193 L 649.12521,106.54411 C 650.3683,101.89377 652.97043,97.743678 657.55636,98.971745 C 661.61199,100.05382 662.14229,103.90978 660.94428,108.42486 L 660.42686,110.35284 L 648.9191,107.27193 L 648.9191,107.27193 z M 666.28594,117.19309 L 667.29073,113.40583 C 669.968,103.43959 668.91813,96.745337 658.9476,94.070211 C 647.70606,91.062305 643.04499,100.50254 640.53088,109.86977 C 636.10812,126.41862 642.88182,130.08564 648.72587,131.65293 C 656.50649,133.74194 662.6318,130.03197 664.74657,122.12468 L 657.97073,120.31478 C 657.39534,122.43599 655.23549,128.12331 650.11711,126.75355 C 644.73036,125.30434 645.76735,119.03519 647.05338,114.24744 L 647.60301,112.1885 L 666.28594,117.19309 z "
         style="fill:#131a20;fill-rule:evenodd"
         id="path62" />
      <path
         d="M 708.91834,136.94307 C 706.83363,142.10653 704.14133,144.73657 700.33905,143.12205 C 695.36881,141.10605 696.63982,135.38866 699.7014,127.80127 C 702.76512,120.20958 705.8267,115.21143 710.79694,117.21885 C 714.86545,118.71958 714.09684,123.22607 712.79362,126.41432 L 719.68755,129.20109 C 721.41801,124.92862 723.17852,116.13678 712.86877,112.12194 C 702.91326,108.09208 697.1143,114.36338 692.80962,125.02094 C 688.50494,135.66777 688.32675,144.20627 698.28225,148.22755 C 706.75849,151.64982 711.65573,147.6221 715.42796,139.57096 L 708.91834,136.94307 L 708.91834,136.94307 z "
         style="fill:#131a20;fill-rule:evenodd"
         id="path64" />
      <path
         d="M 739.34736,150.51192 C 736.96637,155.38125 733.52048,157.44235 729.49491,155.48216 C 726.71458,154.12528 726.43333,151.24833 727.79451,148.46801 C 728.99252,146.00543 730.75303,144.42312 733.12114,144.4317 C 735.5601,144.47464 739.65867,145.48372 742.05469,144.96845 L 739.34736,150.51192 z M 752.46964,139.62893 C 755.35517,133.72047 751.759,129.13883 745.88703,126.26833 C 737.09948,121.98942 732.30529,124.46488 728.82935,131.57779 L 735.14574,134.65225 C 736.71517,131.40174 738.89005,128.5248 743.34287,130.69968 C 746.87893,132.41725 746.97984,134.8648 745.48769,137.92423 C 744.0664,140.83982 742.24791,140.79473 739.51053,140.29664 L 733.62353,139.18021 C 728.38707,138.46098 724.42162,138.43307 720.81256,145.82509 C 717.70589,152.18656 719.59952,156.78323 724.92401,159.37462 C 728.81647,161.27469 732.20224,160.93547 735.59016,158.53301 L 735.71039,158.59312 C 734.33418,161.89516 736.22566,164.27401 739.19922,165.72106 C 740.50243,166.35657 741.89152,166.50256 742.86839,166.52403 L 744.9853,162.19144 C 744.67399,162.19144 744.21454,162.0476 743.77012,161.83505 C 742.79539,161.34983 742.58714,159.8813 743.19473,158.6468 L 752.46964,139.62893 L 752.46964,139.62893 z "
         style="fill:#131a20;fill-rule:evenodd"
         id="path66" />
      <path
         d="M 748.47413,170.5861 L 754.85063,174.41844 L 767.63155,153.12908 C 770.11774,148.99402 773.82985,148.42722 776.43413,149.98806 C 779.61379,151.89457 779.89505,154.23692 777.411,158.3634 L 764.3338,180.12294 L 770.70816,183.95529 L 785.08857,160.00583 C 788.96385,153.5778 787.20333,149.55438 782.36621,146.64738 C 778.83015,144.51758 774.7917,144.42741 771.49395,146.29957 L 771.31575,146.19222 L 773.5486,142.47152 L 767.54352,138.86031 L 748.47413,170.5861 z "
         style="fill:#131a20;fill-rule:evenodd"
         id="path68" />
      <path
         d="M 795.3103,178.91635 C 800.35353,172.46255 804.67324,168.50354 808.90491,171.81417 C 813.17953,175.15271 810.38418,180.30329 805.3388,186.75708 C 799.53983,194.1856 795.99089,197.17204 791.70124,193.82276 C 787.46956,190.52072 789.51133,186.34701 795.3103,178.91635 L 795.3103,178.91635 z M 789.45121,174.3433 C 782.38124,183.39922 780.23641,191.84755 788.31332,198.16394 C 796.45034,204.51038 804.1279,200.38176 811.19788,191.33228 C 818.27215,182.2785 820.80128,174.12431 812.29283,167.47299 C 803.83162,160.86891 796.53836,165.29167 789.45121,174.3433 L 789.45121,174.3433 z "
         style="fill:#131a20;fill-rule:evenodd"
         id="path70" />
      <path
         d="M 840.72946,207.7931 L 841.85018,206.58865 C 844.9869,203.22005 847.1897,197.73669 840.29792,191.31296 C 834.70721,186.10011 828.83739,185.04165 824.08829,190.12353 C 820.0434,194.44753 819.83944,198.10812 822.60473,203.31882 L 825.58044,209.00399 C 826.88365,211.44295 826.71618,213.74021 824.83973,215.75407 C 822.52959,218.21664 819.68056,218.36049 816.70056,215.59519 C 813.57887,212.68605 814.06838,209.94437 816.98397,206.82482 L 817.78693,205.96818 L 812.94337,201.46813 L 812.01158,202.46861 C 807.12937,207.70293 806.22764,212.79984 813.07648,219.17849 C 818.56843,224.29687 825.08878,225.76754 830.48841,219.9879 C 834.47319,215.70898 834.63206,211.80794 831.86677,206.68956 L 829.52657,202.24962 C 827.58785,198.56972 827.44401,196.81993 829.41278,194.70732 C 831.76156,192.19107 834.41307,192.78363 836.57078,194.79749 C 839.38116,197.42538 838.27547,200.14345 836.24444,202.3033 L 835.59391,203.00536 L 840.72946,207.7931 L 840.72946,207.7931 z "
         style="fill:#131a20;fill-rule:evenodd"
         id="path72" />
      <path
         d="M 850.90825,238.32303 C 846.70448,241.97932 843.1083,243.09574 840.46324,239.92896 C 836.9422,235.87548 840.66935,231.36255 846.84833,225.99297 C 853.02302,220.61481 858.02116,217.55538 861.54219,221.60027 C 864.48784,224.78852 861.74616,228.44696 859.14188,230.70343 L 864.02624,236.31346 C 867.50433,233.28409 873.06284,226.25705 865.70088,217.99336 C 858.65667,209.88855 850.63558,212.84492 841.97041,220.38079 C 833.2988,227.91451 829.26249,235.4375 836.3067,243.54231 C 842.31178,250.44697 848.49291,249.0772 855.52209,243.61746 L 850.90825,238.32303 z "
         style="fill:#131a20;fill-rule:evenodd"
         id="path74" />
      <path
         d="M 873.40421,252.98684 L 874.03971,252.57891 C 878.07602,249.94887 882.78862,248.61775 885.37142,252.60253 C 887.65151,256.12356 885.47662,259.34402 881.55411,261.88818 L 879.88806,262.97025 L 873.40421,252.98684 L 873.40421,252.98684 z M 879.66048,271.98323 L 882.94749,269.83841 C 891.60408,264.21979 895.30116,258.54105 889.68039,249.88232 C 883.34898,240.12648 873.56952,244.02109 865.43465,249.30693 C 851.06712,258.63766 853.64349,265.90301 856.93694,270.9763 C 861.3232,277.73067 868.3438,279.07253 875.22913,274.61971 L 871.39679,268.72628 C 869.54825,269.93073 864.13359,272.71106 861.24806,268.26468 C 858.2101,263.59072 863.18677,259.62312 867.34331,256.92653 L 869.13174,255.76072 L 879.66048,271.98323 z "
         style="fill:#131a20;fill-rule:evenodd"
         id="path76" />
      <path
         d="M 869.20688,289.80738 L 872.22123,296.6004 L 894.91471,286.49675 C 899.32244,284.53442 902.69318,286.19403 903.92769,288.96792 C 905.43486,292.36013 904.32059,294.42766 899.92788,296.39 L 876.73631,306.71907 L 879.75065,313.50565 L 905.2674,302.14602 C 912.13771,299.09303 912.9922,294.79265 910.69709,289.63348 C 909.0246,285.86984 905.77409,283.46953 902.004,283.11313 L 901.91169,282.92849 L 905.87285,281.16583 L 903.01737,274.74853 L 869.20688,289.80738 L 869.20688,289.80738 z "
         style="fill:#131a20;fill-rule:evenodd"
         id="path78" />
      <polygon
         points="38.3596,112.541 38.6552,113.646 38.9371,113.57 38.7498,112.871 40.0459,113.273 40.3207,113.2 40.0367,112.138 39.7548,112.213 39.9383,112.897 38.6196,112.471 38.3596,112.541 "
         transform="matrix(21.469707,0,0,21.469707,58.976637,-2094.0601)"
         style="fill:#131a20;fill-rule:evenodd"
         id="polygon80" />
      <path
         d="M 905.06344,371.22051 C 899.66166,371.69714 896.1256,369.79707 895.7327,365.33567 C 895.46004,362.25047 897.80024,360.53289 900.8747,360.26023 C 903.60135,360.02621 905.85782,360.72183 907.0773,362.7593 C 908.29033,364.85689 909.54631,368.89534 911.21236,370.68162 L 905.06344,371.22051 L 905.06344,371.22051 z M 921.15713,376.86275 C 927.70968,376.28736 929.78366,370.85553 929.21686,364.34376 C 928.36022,354.6094 923.76355,351.76252 915.87773,352.46028 L 916.50035,359.45082 C 920.09009,359.13092 923.68841,359.51093 924.11995,364.44897 C 924.46132,368.34787 922.41526,369.70475 919.02948,370.00103 C 915.78756,370.28014 914.90086,368.70641 913.90896,366.09999 L 911.84142,360.47278 C 909.75028,355.61633 907.73642,352.20265 899.53499,352.92188 C 892.49078,353.53377 889.52796,357.52713 890.05182,363.41842 C 890.41466,367.73383 892.46072,370.46263 896.26301,372.12868 L 896.27803,372.26609 C 892.7248,372.7878 891.65775,375.64327 891.96048,378.93028 C 892.07427,380.36875 892.66468,381.63547 893.15634,382.48352 L 897.95911,382.06486 C 897.80024,381.80937 897.67786,381.3306 897.6478,380.85397 C 897.54904,379.75472 898.69982,378.82508 900.08032,378.7027 L 921.15713,376.86275 L 921.15713,376.86275 z "
         style="fill:#131a20;fill-rule:evenodd"
         id="path82" />
    </g>
    <g
       id="g2389">
      <path
         d="M 210.21999,624.69187 C 210.21999,619.37383 214.5311,615.05842 219.85345,615.05842 C 225.17149,615.05627 229.48261,619.37597 229.48261,624.69187 C 229.48261,630.01636 225.17149,634.32748 219.85345,634.32748 C 214.5311,634.32748 210.21999,630.01851 210.21999,624.69187 z "
         style="fill:#5181ba;fill-rule:evenodd"
         id="path24" />
      <path
         d="M 819.06867,617.07013 C 824.20208,613.45678 829.24746,609.7554 834.24561,605.94452 C 917.41711,542.48007 963.23132,458.1535 963.23132,368.48312 C 963.23132,278.81275 917.41711,194.47759 834.24561,131.01528 C 750.93026,67.454215 640.14658,32.43927 522.27574,32.43927 C 404.40705,32.43927 293.61048,67.454215 210.30157,131.01528 C 127.13437,194.47759 81.330896,278.81489 81.330896,368.48312 C 81.330896,458.1535 127.13437,542.48222 210.30157,605.94452 C 215.31475,609.77043 220.26352,613.48039 225.80055,617.0873 L 213.87413,632.24062 C 207.51266,627.87154 201.30577,623.35002 195.18905,618.67821 C 107.65061,551.8881 59.444676,463.03142 59.444676,368.48312 C 59.444676,273.93483 107.65061,185.07815 195.18905,118.28375 C 282.57934,51.600984 398.73904,14.874903 522.27574,14.874903 C 645.81029,14.872756 761.96569,51.600984 849.36458,118.28375 C 936.89657,185.07815 985.10465,273.93698 985.10465,368.48312 C 985.10465,463.03142 936.89657,551.89024 849.36458,618.67821 C 843.25859,623.35002 837.00232,627.8651 831.11103,632.23418 L 819.06867,617.07013 z "
         style="fill:#5181ba;fill-rule:evenodd"
         id="path84" />
      <path
         d="M 815.51758,624.60599 C 815.51758,619.26648 819.85446,614.92745 825.19398,614.92745 C 830.53564,614.92745 834.86608,619.26862 834.86608,624.60814 C 834.86608,629.9541 830.5335,634.28668 825.19398,634.28668 C 819.85446,634.28668 815.51758,629.9541 815.51758,624.60599 z "
         style="fill:#5181ba;fill-rule:evenodd"
         id="path86" />
    </g>
  </g>
</svg>
