<?xml version="1.0" encoding="UTF-8" standalone="no"?>
<!DOCTYPE svg PUBLIC "-//W3C//DTD SVG 1.1//EN" "http://www.w3.org/Graphics/SVG/1.1/DTD/svg11.dtd">
<svg xmlns="http://www.w3.org/2000/svg" xmlns:xlink="http://www.w3.org/1999/xlink" version="1.1" width="134.547pt" height="133.675pt" viewBox="0 0 134.547 133.675">
<g enable-background="new">
<g id="Layer-1" data-name="Livello 1">
<clipPath id="cp0">
<path transform="matrix(1,0,0,-1,0,206.425)" d="M 0 206.425 L 133.237 206.425 L 133.237 0 L 0 0 Z "/>
</clipPath>
<g clip-path="url(#cp0)">
<path transform="matrix(1,0,0,-1,87.7335,37.6286)" d="M 0 0 C .511 1.982 1.181 3.436 1.591 4.216 C -1.198 6.089 -4.262 7.621 -7.492 8.764 C -7.691 7.897 -7.946 6.533 -8.07 4.808 C -8.286 1.791 -8.042 -1.247 -7.345 -4.221 C -6.808 -6.51 -5.994 -8.753 -4.932 -10.899 C -3.666 -11.169 -2.377 -11.499 -1.064 -11.892 C -.566 -12.041 -.067 -12.2 .432 -12.366 C -.071 -10.821 -.409 -9.25 -.572 -7.679 C -.84 -5.098 -.647 -2.514 0 0 " fill="#231f20"/>
<path transform="matrix(1,0,0,-1,68.4756,32.564607)" d="M 0 0 C -.371 2.043 -.561 3.762 -.658 4.974 C -.646 -.817 -.628 -8.489 -.611 -15.975 C 1.009 -15.534 2.732 -15.251 4.526 -15.137 C 4.854 -15.116 5.185 -15.103 5.518 -15.093 C 4.463 -13.37 3.52 -11.492 2.709 -9.49 C 1.522 -6.559 .611 -3.366 0 0 " fill="#231f20"/>
<path transform="matrix(1,0,0,-1,78.2833,32.72191)" d="M 0 0 C .136 1.907 .421 3.383 .639 4.299 C -2.518 5.299 -5.812 5.934 -9.147 6.16 C -9.084 5.044 -8.912 2.974 -8.445 .405 C -7.852 -2.868 -6.967 -5.97 -5.815 -8.813 C -4.92 -11.028 -3.856 -13.082 -2.657 -14.93 C -.894 -14.969 .938 -15.152 2.831 -15.479 C 1.939 -13.526 1.241 -11.503 .758 -9.443 C .029 -6.333 -.227 -3.156 0 0 " fill="#231f20"/>
<path transform="matrix(1,0,0,-1,90.4708,34.2126)" d="M 0 0 C -.377 -.743 -.954 -2.043 -1.396 -3.761 C -2.003 -6.115 -2.184 -8.535 -1.933 -10.953 C -1.745 -12.771 -1.305 -14.589 -.631 -16.366 C .699 -16.853 2.031 -17.394 3.354 -17.989 C 3.08 -15.24 3.388 -12.723 4.272 -10.491 C 4.955 -8.769 5.89 -7.44 6.81 -6.44 C 4.862 -4.019 2.562 -1.859 0 0 " fill="#231f20"/>
<path transform="matrix(1,0,0,-1,62.6622,25.248703)" d="M 0 0 C 13.576 1.234 27.522 -4.437 35.632 -14.459 C 36.386 -13.618 36.322 -12.775 35.523 -11.85 C 26.941 -2.417 13.219 2.82 -.146 1.608 C -13.842 .364 -25.579 -7.275 -33.568 -20.037 C -34.44 -21.51 -34.878 -22.416 -33.889 -23.771 C -26.199 -9.652 -14.383 -1.307 0 0 " fill="#231f20"/>
<path transform="matrix(1,0,0,-1,43.6793,33.998704)" d="M 0 0 C .305 -.641 .635 -1.286 .972 -1.915 C 1.451 -2.811 1.955 -3.695 2.482 -4.566 C 3.535 -6.309 4.671 -8.002 5.886 -9.637 C 8.317 -12.906 11.06 -15.949 14.125 -18.632 C 14.59 -19.041 15.065 -19.437 15.546 -19.828 C 16.288 -18.717 17.257 -17.753 18.438 -16.961 C 19.224 -16.433 20.048 -16.019 20.823 -15.689 C 20.319 -15.003 19.831 -14.308 19.357 -13.603 C 17.344 -10.595 15.584 -7.423 14.064 -4.144 C 13.304 -2.504 12.585 -.845 11.94 .844 C 11.361 2.367 10.818 3.89 10.348 5.467 C 6.693 4.191 3.221 2.346 0 0 " fill="#231f20"/>
<path transform="matrix(1,0,0,-1,62.7877,26.62761)" d="M 0 0 C -2.542 -.23 -5.029 -.73 -7.442 -1.473 C -6.978 -2.995 -6.443 -4.528 -5.873 -6.031 C -5.234 -7.69 -4.561 -9.336 -3.826 -10.955 C -3.098 -12.578 -2.301 -14.167 -1.469 -15.737 C -.633 -17.306 .26 -18.843 1.216 -20.34 C 1.715 -21.121 2.234 -21.89 2.771 -22.645 C 2.936 -22.585 3.096 -22.529 3.25 -22.477 L 3.213 .157 C 2.142 .146 1.07 .098 0 0 " fill="#231f20"/>
<path transform="matrix(1,0,0,-1,62.8887,52.108598)" d="M 0 0 C -1.079 -.724 -1.924 -1.571 -2.575 -2.578 C -1.818 -3.158 -1.045 -3.717 -.255 -4.25 C .853 -5.003 1.996 -5.702 3.165 -6.357 L 3.153 .423 C 2.924 .708 2.696 .992 2.472 1.281 C 1.672 .959 .814 .547 0 0 " fill="#231f20"/>
<path transform="matrix(1,0,0,-1,64.7452,58.8098)" d="M 0 0 C -.908 .506 -1.803 1.038 -2.669 1.612 C -3.444 2.123 -4.201 2.659 -4.945 3.211 C -5.322 2.441 -5.834 1.14 -5.941 -.407 C -6.042 -1.852 -5.762 -3.209 -5.111 -4.439 C -3.867 -6.791 -1.447 -8.359 1.323 -8.664 L 1.31 -.699 C .87 -.473 .433 -.239 0 0 " fill="#231f20"/>
<path transform="matrix(1,0,0,-1,58.4107,63.896699)" d="M 0 0 L -.001 .003 C -2.509 .985 -4.924 2.198 -7.217 3.607 C -9.641 5.094 -11.931 6.793 -14.08 8.652 C -16.227 10.512 -18.237 12.529 -20.095 14.677 C -21.026 15.75 -21.918 16.856 -22.77 17.996 C -23.196 18.565 -23.611 19.143 -24.014 19.731 C -24.152 19.934 -24.288 20.136 -24.422 20.339 C -26.024 18.243 -27.498 15.981 -28.829 13.573 C -28.396 12.986 -27.953 12.405 -27.494 11.837 C -26.262 10.335 -24.947 8.898 -23.54 7.557 C -20.732 4.87 -17.58 2.538 -14.161 .696 C -10.745 -1.15 -7.053 -2.484 -3.24 -3.23 C -1.336 -3.604 .605 -3.833 2.549 -3.957 C 3.112 -3.991 3.677 -4.013 4.241 -4.024 C 2.437 -3.159 .936 -1.77 0 0 " fill="#231f20"/>
<path transform="matrix(1,0,0,-1,104.3516,66.4841)" d="M 0 0 C -.448 0 -.812 -.363 -.812 -.811 C -.812 -1.26 -.448 -1.623 0 -1.623 C .448 -1.623 .812 -1.26 .812 -.811 C .812 -.363 .448 0 0 0 " fill="#231f20"/>
<path transform="matrix(1,0,0,-1,42.564,34.838106)" d="M 0 0 C -2.776 -2.162 -5.35 -4.705 -7.678 -7.58 C -7.471 -7.909 -7.256 -8.239 -7.039 -8.563 C -6.654 -9.138 -6.254 -9.705 -5.844 -10.265 C -5.024 -11.385 -4.162 -12.477 -3.262 -13.535 C -1.464 -15.656 .484 -17.65 2.567 -19.492 C 6.356 -22.841 10.626 -25.67 15.266 -27.676 C 14.917 -26.603 14.777 -25.467 14.858 -24.283 C 14.993 -22.338 15.687 -20.734 16.118 -19.903 C 15.582 -19.481 15.052 -19.052 14.534 -18.609 C 11.372 -15.909 8.537 -12.84 6.017 -9.539 C 4.758 -7.887 3.578 -6.175 2.481 -4.409 C 1.933 -3.527 1.406 -2.63 .904 -1.718 C .591 -1.149 .291 -.582 0 0 " fill="#231f20"/>
<path transform="matrix(1,0,0,-1,45.9595,74.235507)" d="M 0 0 C .482 .01 .856 .389 .86 .88 C .874 1.43 .421 1.783 -.036 1.781 C -.509 1.775 -.898 1.372 -.901 .896 C -.905 .391 -.505 -.007 0 0 " fill="#231f20"/>
<path transform="matrix(1,0,0,-1,39.0235,77.2722)" d="M 0 0 C .466 0 .874 .4 .887 .87 C .902 1.369 .498 1.782 -.004 1.782 C -.479 1.78 -.879 1.394 -.896 .92 C -.913 .437 -.485 0 0 0 " fill="#231f20"/>
<path transform="matrix(1,0,0,-1,108.2051,66.4841)" d="M 0 0 C -.448 0 -.812 -.363 -.812 -.811 C -.812 -1.26 -.448 -1.623 0 -1.623 C .448 -1.623 .812 -1.26 .812 -.811 C .812 -.363 .448 0 0 0 " fill="#231f20"/>
<path transform="matrix(1,0,0,-1,33.6231,84.879108)" d="M 0 0 C 6.915 -.734 12.22 .603 12.22 .603 L 2.501 1.666 C 2.501 1.666 1.311 .612 0 0 " fill="#231f20"/>
<path transform="matrix(1,0,0,-1,39.0308,74.007999)" d="M 0 0 C .464 .008 .873 .421 .877 .885 C .883 1.373 .458 1.792 -.036 1.783 C -.534 1.775 -.921 1.354 -.9 .849 C -.879 .374 -.474 -.011 0 0 " fill="#231f20"/>
<path transform="matrix(1,0,0,-1,115.9131,66.4841)" d="M 0 0 C -.448 0 -.812 -.363 -.812 -.811 C -.812 -1.26 -.448 -1.623 0 -1.623 C .448 -1.623 .812 -1.26 .812 -.811 C .812 -.363 .448 0 0 0 " fill="#231f20"/>
<path transform="matrix(1,0,0,-1,112.0059,69.3913)" d="M 0 0 L -.033 -.085 C -3.803 -7.564 -14.066 -14.339 -20.913 -16.981 C -31.649 -21.125 -40.454 -21.979 -49.521 -22.25 C -50.446 -22.278 -51.41 -22.291 -52.402 -22.291 C -61.134 -22.291 -72.078 -21.268 -78.33 -20.017 C -85.295 -18.625 -95.154 -15.766 -95.293 -15.715 C -95.357 -15.583 -94.211 -14.316 -92.876 -14.297 C -92.831 -14.295 -92.785 -14.294 -92.739 -14.294 C -92.436 -14.294 -92.128 -14.339 -91.826 -14.378 C -90.494 -14.556 -89.158 -14.651 -87.817 -14.651 C -87.453 -14.651 -87.088 -14.644 -86.723 -14.63 C -84.619 -14.547 -82.63 -14.004 -80.73 -13.124 C -79.836 -12.708 -76.916 -10.751 -76.73 -9.006 C -76.642 -8.184 -76.548 -7.362 -76.516 -6.538 C -76.458 -5.063 -76.452 -3.585 -76.405 -2.109 C -76.341 -.056 -75.926 4.955 -75.926 4.955 L -75.195 4.949 L -74.6 -.892 L -62.956 -1.602 L -62.622 -9.511 C -62.622 -9.511 -64.187 -10.942 -66.542 -11.698 C -66.001 -11.824 -60.902 -12.175 -59.126 -12.208 C -58.896 -12.213 -58.603 -12.215 -58.265 -12.215 C -56.144 -12.215 -52.274 -12.14 -51.53 -12.132 C -47.19 -12.057 -39.256 -11.51 -30.206 -10.353 C -27.702 -9.981 -25.214 -9.536 -22.749 -8.956 C -20.696 -8.473 -18.668 -7.898 -16.693 -7.152 C -16.284 -6.998 -15.438 -6.658 -15.438 -6.658 L -17.411 -.571 L -16.732 1.496 L -12.156 -5.197 C -12.156 -5.197 -8.329 -3.083 -5.222 -.085 L -5.156 0 L -9.84 0 L -9.84 4.191 L -1.924 4.191 C -1.32 4.815 -.681 6.052 -.482 7.612 C -.453 8.285 -.553 8.959 -.807 9.558 C -1.085 10.223 -1.541 10.792 -2.151 11.147 C -2.755 11.507 -3.507 11.669 -4.292 11.613 C -5.061 11.565 -5.735 11.265 -6.188 10.756 C -6.644 10.25 -6.901 9.527 -6.922 8.786 C -6.947 8.049 -6.68 7.301 -6.153 6.791 C -5.891 6.537 -5.564 6.348 -5.199 6.247 C -4.827 6.147 -4.443 6.131 -4.071 6.236 C -3.701 6.341 -3.349 6.562 -3.079 6.874 C -2.811 7.187 -2.633 7.592 -2.578 8.031 L -2.374 8.031 C -2.25 7.07 -2.814 5.996 -3.793 5.535 C -4.275 5.293 -4.843 5.224 -5.372 5.288 C -5.912 5.347 -6.443 5.561 -6.89 5.889 C -7.797 6.545 -8.321 7.632 -8.413 8.723 C -8.458 9.27 -8.408 9.827 -8.243 10.362 C -8.085 10.899 -7.799 11.408 -7.423 11.844 C -7.046 12.28 -6.566 12.631 -6.054 12.866 C -5.539 13.104 -5 13.24 -4.47 13.309 C -3.942 13.375 -3.413 13.388 -2.863 13.321 C -2.319 13.253 -1.772 13.1 -1.262 12.854 C -1.029 12.744 -.807 12.613 -.595 12.468 C -.845 13.876 -1.412 15.252 -1.968 16.083 L -1.479 16.428 C -1.479 16.428 .419 13.916 1.233 11.716 C 2.13 9.293 2.401 7.528 1.571 4.191 L 3.877 4.191 C 5.27 4.191 6.399 3.062 6.399 1.669 L 6.399 0 Z M -8.369 -16.079 L -10.266 -12.745 C -9.66 -12.323 -9.063 -11.891 -8.481 -11.449 C -8.449 -11.425 -8.416 -11.398 -8.384 -11.373 L -2.396 -20.578 C -5.799 -20.199 -8.369 -16.079 -8.369 -16.079 M -12.2 -17.437 L -13.127 -14.611 C -12.428 -14.186 -11.733 -13.741 -11.049 -13.281 L -7.286 -23.073 C -10.538 -21.999 -12.2 -17.437 -12.2 -17.437 M -12.214 -24.577 C -12.291 -25.546 -12.693 -26.438 -13.356 -27.132 C -13.456 -27.233 -13.558 -27.331 -13.666 -27.425 C -14.516 -28.149 -15.593 -28.5 -16.707 -28.411 C -17.639 -28.34 -18.473 -27.894 -19.093 -27.193 C -19.614 -26.61 -20.024 -25.36 -19.738 -24.449 C -19.53 -23.779 -19.014 -23.3 -18.487 -23.167 C -17.393 -22.891 -16.863 -23.529 -16.863 -23.529 C -17.606 -23.471 -18.261 -24.029 -18.318 -24.772 C -18.358 -25.276 -18.198 -25.764 -17.869 -26.151 C -17.543 -26.534 -17.085 -26.77 -16.58 -26.809 C -15.897 -26.863 -15.232 -26.647 -14.712 -26.2 C -14.188 -25.755 -13.873 -25.135 -13.818 -24.449 C -13.747 -23.542 -14.032 -22.66 -14.624 -21.968 C -15.218 -21.275 -16.042 -20.857 -16.951 -20.783 C -20.514 -20.491 -23.916 -25.003 -28.364 -30.661 C -29.555 -32.175 -31.543 -32.864 -32.903 -32.588 C -33.822 -32.402 -34.595 -31.861 -35.128 -31.091 C -35.571 -30.447 -35.83 -29.157 -35.434 -28.287 C -35.145 -27.648 -34.575 -27.235 -34.038 -27.166 C -32.917 -27.025 -32.468 -27.721 -32.468 -27.721 C -33.198 -27.573 -33.914 -28.048 -34.064 -28.781 C -34.164 -29.275 -34.066 -29.78 -33.786 -30.203 C -33.507 -30.624 -33.08 -30.911 -32.586 -31.011 C -31.914 -31.147 -31.227 -31.014 -30.655 -30.637 C -30.084 -30.257 -29.694 -29.677 -29.559 -29.006 C -29.376 -28.112 -29.555 -27.203 -30.059 -26.444 C -30.562 -25.686 -31.33 -25.167 -32.222 -24.985 C -35.603 -24.299 -39.239 -27.152 -44.71 -33.303 C -45.291 -33.955 -46.19 -34.667 -46.935 -34.876 C -48.009 -35.178 -49.125 -35.146 -50.122 -34.646 C -50.958 -34.228 -51.564 -33.503 -51.876 -32.621 C -52.137 -31.882 -52.049 -30.571 -51.441 -29.834 C -50.994 -29.292 -50.336 -29.042 -49.799 -29.117 C -48.681 -29.273 -48.43 -30.063 -48.43 -30.063 C -49.097 -29.729 -49.912 -30 -50.248 -30.667 C -50.473 -31.121 -50.509 -31.634 -50.352 -32.113 C -50.191 -32.592 -49.854 -32.983 -49.403 -33.208 C -48.789 -33.516 -48.092 -33.565 -47.441 -33.349 C -46.792 -33.133 -46.264 -32.676 -45.956 -32.062 C -45.548 -31.249 -45.483 -30.323 -45.768 -29.459 C -46.058 -28.595 -46.664 -27.894 -47.478 -27.487 C -50.806 -25.819 -56.238 -27.87 -63.625 -33.583 C -64.364 -34.16 -65.255 -34.467 -66.184 -34.467 C -66.324 -34.467 -66.465 -34.461 -66.608 -34.446 C -67.718 -34.335 -68.717 -33.798 -69.423 -32.934 C -70.017 -32.208 -70.272 -31.3 -70.198 -30.368 C -70.134 -29.587 -69.518 -28.428 -68.661 -28.003 C -68.032 -27.691 -67.329 -27.733 -66.869 -28.019 C -65.913 -28.62 -66.007 -29.444 -66.007 -29.444 C -66.48 -28.865 -67.333 -28.781 -67.912 -29.252 C -68.302 -29.572 -68.546 -30.026 -68.597 -30.527 C -68.647 -31.031 -68.5 -31.525 -68.178 -31.916 C -67.745 -32.445 -67.13 -32.776 -66.447 -32.846 C -65.765 -32.915 -65.096 -32.712 -64.566 -32.278 C -63.862 -31.702 -63.422 -30.885 -63.33 -29.979 C -63.24 -29.072 -63.509 -28.185 -64.083 -27.479 C -66.467 -24.566 -72.369 -24.245 -81.628 -26.527 C -74.02 -23.12 -65.688 -22.977 -62.84 -26.461 C -61.991 -27.5 -61.597 -28.806 -61.73 -30.139 C -61.734 -30.164 -61.737 -30.186 -61.739 -30.208 C -55.169 -25.663 -50.25 -24.299 -46.758 -26.048 C -45.558 -26.649 -44.666 -27.68 -44.243 -28.952 C -44.138 -29.268 -44.066 -29.587 -44.025 -29.908 C -39.406 -24.831 -35.417 -22.697 -31.902 -23.409 C -30.588 -23.676 -29.457 -24.437 -28.717 -25.554 C -28.405 -26.023 -27.948 -26.746 -27.862 -27.295 C -23.718 -21.533 -20.346 -18.962 -16.825 -19.179 C -15.33 -19.271 -14.271 -19.904 -13.401 -20.924 C -12.531 -21.942 -12.111 -23.24 -12.214 -24.577 M -26.898 -38.857 C -32.864 -42.703 -38.277 -45.043 -41.961 -41.479 C -42.923 -40.545 -43.267 -39.17 -43.171 -37.832 C -43.171 -37.81 -43.167 -37.785 -43.165 -37.763 C -49.604 -42.493 -54.485 -43.993 -58.024 -42.342 C -59.239 -41.774 -60.16 -40.77 -60.618 -39.512 C -60.732 -39.2 -60.815 -38.83 -60.86 -38.509 C -60.918 -38.08 -60.979 -37.429 -60.87 -36.802 C -60.763 -36.189 -60.452 -35.529 -60.069 -35.014 C -59.66 -34.464 -59.087 -33.969 -58.486 -33.679 C -58.36 -33.618 -58.229 -33.563 -58.096 -33.514 C -57.045 -33.133 -55.913 -33.182 -54.9 -33.653 C -54.053 -34.048 -53.428 -34.756 -53.092 -35.629 C -52.808 -36.359 -52.863 -37.673 -53.447 -38.426 C -53.879 -38.982 -54.531 -39.249 -55.068 -39.188 C -56.19 -39.066 -56.465 -38.281 -56.465 -38.281 C -55.789 -38.597 -54.981 -38.302 -54.666 -37.626 C -54.452 -37.17 -54.429 -36.654 -54.602 -36.18 C -54.776 -35.704 -55.122 -35.325 -55.582 -35.11 C -56.202 -34.821 -56.899 -34.791 -57.545 -35.026 C -58.188 -35.259 -58.704 -35.73 -58.994 -36.353 C -59.378 -37.179 -59.419 -38.104 -59.108 -38.961 C -58.796 -39.816 -58.171 -40.5 -57.344 -40.885 C -53.971 -42.457 -48.599 -40.256 -41.375 -34.335 C -40.651 -33.739 -39.769 -33.407 -38.841 -33.381 C -38.702 -33.377 -38.56 -33.381 -38.416 -33.391 C -37.305 -33.471 -36.288 -33.979 -35.56 -34.821 C -34.947 -35.529 -34.665 -36.433 -34.714 -37.366 C -34.756 -38.148 -35.34 -39.326 -36.184 -39.772 C -36.805 -40.104 -37.508 -40.083 -37.974 -39.807 C -38.95 -39.235 -38.877 -38.407 -38.877 -38.407 C -38.389 -38.973 -37.532 -39.034 -36.969 -38.546 C -36.585 -38.214 -36.356 -37.754 -36.318 -37.25 C -36.283 -36.745 -36.444 -36.257 -36.775 -35.875 C -37.226 -35.356 -37.848 -35.045 -38.533 -34.994 C -39.217 -34.945 -39.88 -35.165 -40.398 -35.614 C -41.086 -36.21 -41.501 -37.04 -41.568 -37.949 C -41.632 -38.856 -41.365 -39.76 -40.744 -40.425 C -37.921 -43.441 -32.924 -41.377 -28.054 -38.873 C -27.551 -38.616 -26.064 -37.956 -25.821 -38.122 C -25.941 -38.242 -26.255 -38.442 -26.898 -38.857 M -30.665 -.988 C -30.456 -.892 -29.964 -.715 -29.724 -.272 C -29.585 -.067 -29.435 .126 -29.303 .334 C -29.207 .481 -29.117 .635 -29.057 .798 C -28.897 1.219 -29.129 1.578 -29.579 1.627 C -29.701 1.64 -30.336 1.625 -30.635 1.631 C -30.847 1.634 -31.296 1.702 -31.503 1.841 C -31.339 2.213 -31.182 2.549 -31.018 2.908 C -30.847 3.293 -30.661 3.67 -30.484 4.053 C -30.315 4.418 -30.178 4.801 -29.931 5.166 C -29.795 5.123 -28.969 4.867 -28.676 4.809 C -28.273 4.73 -27.919 4.7 -27.553 4.98 C -27.554 4.997 -28.856 5.714 -29.461 6.052 C -29.312 6.453 -29.188 6.678 -28.933 6.954 C -28.713 7.174 -28.444 7.476 -27.752 7.444 C -27.312 7.457 -26.554 7.287 -26.115 7.285 C -25.478 7.266 -25.062 7.673 -24.986 8.013 C -24.908 8.368 -24.936 8.71 -25.084 9.042 C -25.622 10.517 -27.22 10.532 -27.395 10.56 C -27.437 11.015 -27.47 11.533 -27.511 11.977 C -27.034 12.04 -21.21 13.048 -18.627 6.909 C -17.145 3.387 -19.07 .547 -19.07 .547 L -20.289 1.266 C -20.289 1.266 -20.143 1.595 -20.086 1.738 C -19.72 2.677 -19.604 3.642 -19.819 4.634 C -19.996 5.449 -20.472 6.062 -21.176 6.498 C -21.562 6.738 -21.981 6.837 -22.436 6.798 C -23.058 6.742 -23.397 6.203 -23.155 5.624 C -23.054 5.381 -22.901 5.162 -22.754 4.944 C -22.502 4.568 -22.378 4.159 -22.36 3.706 C -22.313 2.472 -23.005 1.028 -23.896 .372 C -24.408 .607 -24.896 .893 -25.035 .872 C -25.509 .627 -25.527 .038 -25.46 -.375 C -25.409 -.817 -24.994 -1.256 -24.492 -1.354 C -24.181 -1.416 -23.322 -1.585 -23.2 -1.607 C -22.051 -1.814 -21.268 -2.52 -20.761 -3.518 C -20.336 -4.346 -19.683 -4.938 -18.974 -5.49 C -18.792 -5.632 -18.361 -5.918 -17.991 -6.151 C -19.216 -6.581 -20.537 -6.975 -21.989 -7.344 C -22.103 -7.299 -22.205 -7.253 -22.269 -7.218 C -22.793 -6.93 -23.324 -6.662 -23.856 -6.394 C -23.978 -6.333 -24.119 -6.311 -24.25 -6.271 C -24.559 -6.647 -25.22 -7.464 -25.265 -7.519 C -25.474 -7.805 -25.594 -8.02 -25.765 -8.189 C -27.206 -8.473 -28.739 -8.735 -30.396 -8.981 C -32.878 -9.299 -35.256 -9.567 -37.485 -9.792 C -35.373 -8.065 -33.799 -5.57 -33.531 -5.015 C -33.924 -4.162 -33.024 -2.191 -30.665 -.988 M -86.221 21.146 C -78.038 36.5 -65.038 45.728 -49.615 47.129 C -48.416 47.238 -47.214 47.292 -46.012 47.301 L -46.016 49.539 C -46.016 50.813 -44.946 51.445 -44.209 51.46 C -44.209 51.451 -44.206 49.887 -44.2 47.282 C -31.329 46.861 -18.778 40.902 -11.155 31.296 C -10.384 30.392 -9.73 29.498 -9.014 28.464 C -9.602 28.494 -10.304 28.447 -11.552 29.294 C -11.552 29.294 -11.666 29.372 -11.793 29.451 C -11.814 29.44 -11.839 29.425 -11.864 29.409 C -13.006 28.607 -14.874 26.957 -15.976 24.178 C -16.902 21.843 -17.129 19.14 -16.649 16.146 L -16.441 14.848 L -17.629 15.411 C -20.314 16.684 -23.042 17.738 -25.734 18.545 C -30.485 19.968 -34.92 20.562 -38.916 20.308 C -40.752 20.192 -42.505 19.89 -44.139 19.415 C -44.137 18.634 -44.136 17.858 -44.134 17.088 C -43.272 16.054 -42.354 15.069 -41.378 14.141 C -38.817 11.697 -35.865 9.651 -32.634 8.123 L -32.737 7.883 C -36.104 9.168 -39.237 11.105 -41.957 13.51 C -42.712 14.18 -43.435 14.887 -44.131 15.62 C -44.126 13.665 -44.122 11.761 -44.118 9.943 C -44.116 9.942 -44.113 9.941 -44.111 9.94 C -40.476 8.102 -36.563 6.798 -32.523 6.074 L -32.562 5.815 C -36.534 6.269 -40.443 7.369 -44.116 9.008 C -44.102 2.386 -44.09 -2.923 -44.086 -4.875 C -44.028 -4.911 -43.971 -4.946 -43.914 -4.983 C -42.504 -5.915 -40.987 -7.173 -39.249 -8.75 C -38.792 -9.138 -38.27 -9.598 -38.021 -9.845 C -41.73 -10.211 -45.003 -10.454 -47.619 -10.596 C -49.283 -8.907 -50.666 -7.16 -50.836 -6.921 C -50.836 -6.921 -51.67 -8.29 -52.548 -8.874 C -53.655 -9.609 -55.709 -10.421 -56.801 -10.823 C -57.334 -10.828 -57.836 -10.831 -58.265 -10.831 C -58.609 -10.831 -58.89 -10.829 -59.1 -10.825 C -59.73 -10.813 -60.685 -10.766 -61.693 -10.705 C -60.053 -9.553 -54.81 -4.639 -52.992 -3.381 C -52.423 -3.029 -51.72 -1.968 -50.717 -2.253 C -50.664 -2.27 -50.608 -2.287 -50.551 -2.305 C -48.791 -2.696 -47.305 -3.191 -45.928 -3.852 L -45.936 .496 C -47.658 .369 -49.387 .359 -51.108 .451 C -53.099 .563 -55.082 .783 -57.05 1.154 C -60.979 1.894 -64.796 3.242 -68.328 5.119 C -71.864 6.991 -75.125 9.367 -78.03 12.109 C -79.486 13.478 -80.848 14.944 -82.126 16.48 C -82.761 17.253 -83.375 18.043 -83.96 18.856 C -84.306 19.338 -84.639 19.821 -84.962 20.319 C -85.646 18.984 -86.887 18.055 -87.74 18.143 C -87.425 18.87 -86.858 20.037 -86.221 21.146 M -45.458 57.73 C -75.781 57.73 -100.365 33.146 -100.365 2.823 C -100.365 -27.502 -75.781 -52.083 -45.458 -52.083 C -15.135 -52.083 9.45 -27.502 9.45 2.823 C 9.45 33.146 -15.135 57.73 -45.458 57.73 " fill="#231f20"/>
<path transform="matrix(1,0,0,-1,42.5738,77.41861)" d="M 0 0 C .513 -.008 .913 .377 .913 .881 C .911 1.357 .524 1.752 .047 1.765 C -.451 1.777 -.87 1.371 -.872 .877 C -.872 .402 -.481 .011 0 0 " fill="#231f20"/>
<path transform="matrix(1,0,0,-1,112.0596,66.4841)" d="M 0 0 C -.448 0 -.812 -.363 -.812 -.811 C -.812 -1.26 -.448 -1.623 0 -1.623 C .448 -1.623 .812 -1.26 .812 -.811 C .812 -.363 .448 0 0 0 " fill="#231f20"/>
<path transform="matrix(1,0,0,-1,42.5674,74.12421)" d="M 0 0 C .496 -.012 .917 .401 .913 .894 C .909 1.365 .509 1.773 .043 1.784 C -.434 1.795 -.838 1.412 -.858 .935 C -.879 .424 -.5 .009 0 0 " fill="#231f20"/>
<path transform="matrix(1,0,0,-1,45.9649,77.680408)" d="M 0 0 C .543 .036 .872 .457 .857 .889 C .857 1.402 .466 1.785 -.047 1.776 C -.526 1.764 -.909 1.374 -.909 .895 C -.911 .4 -.484 -.032 0 0 " fill="#231f20"/>
<path transform="matrix(1,0,0,-1,66.5484,127.515308)" d="M 0 0 C -1.023 0 -1.853 -.83 -1.853 -1.854 C -1.853 -2.877 -1.023 -3.706 0 -3.706 C 1.024 -3.706 1.853 -2.877 1.853 -1.854 C 1.853 -.83 1.024 0 0 0 M 15.913 1.742 L 17.854 -1.019 L 18.055 2.35 Z M 17.571 -3.125 L 12.463 3.819 L 14.124 4.291 L 15.118 2.871 L 18.139 3.729 L 18.238 5.459 L 19.802 5.902 L 19.115 -2.687 Z M 27.99 8.144 L 23.993 6.142 L 23.383 7.358 L 29.155 10.248 L 29.713 9.131 L 28.261 2.271 L 31.86 4.072 L 32.463 2.866 L 27.11 .186 L 26.551 1.303 Z M 40.938 10.975 L 37.186 15.862 L 38.378 16.778 L 43.298 10.37 L 41.655 9.108 L 35.338 12.027 L 39.092 7.14 L 37.899 6.224 L 32.978 12.632 L 34.623 13.894 Z M 47.723 14.516 L 46.756 15.375 L 49.61 18.582 L 48.11 19.915 L 45.413 16.883 L 44.446 17.742 L 47.143 20.775 L 45.502 22.234 L 42.649 19.027 L 41.683 19.886 L 45.595 24.285 L 51.634 18.914 Z M 50.06 31.018 C 51.291 33.075 53.415 33.415 55.625 32.094 C 57.815 30.784 58.429 28.704 57.222 26.685 C 56.25 25.059 54.659 24.503 53.077 25.138 L 53.854 26.438 C 54.974 26.119 55.679 26.581 56.137 27.346 C 56.766 28.399 56.385 29.717 54.779 30.678 C 53.124 31.667 51.762 31.39 51.163 30.385 C 50.67 29.563 50.637 28.661 51.444 27.88 L 50.666 26.579 C 49.377 27.596 49.065 29.354 50.06 31.018 M 61.703 42.247 C 63.235 41.696 63.322 39.828 62.816 38.422 C 62.25 36.848 60.844 35.837 59.359 36.288 L 59.879 37.736 C 60.812 37.531 61.386 38.202 61.642 38.915 C 61.891 39.607 61.908 40.479 61.226 40.724 C 60.692 40.916 60.236 40.57 59.901 40.003 L 59.364 39.071 C 58.699 37.912 57.714 36.725 56.141 37.291 C 54.578 37.854 54.371 39.682 54.92 41.213 C 55.593 43.081 57.045 43.957 58.731 43.505 L 58.21 42.057 C 57.038 42.289 56.423 41.633 56.098 40.731 C 55.857 40.059 55.792 39.123 56.611 38.829 C 57.261 38.594 57.718 39.106 58.155 39.861 L 58.681 40.762 C 59.367 41.913 60.38 42.722 61.703 42.247 M 61.561 49.563 C 63.434 49.287 64.59 50.176 64.774 51.421 C 64.957 52.667 64.107 53.852 62.233 54.127 C 60.359 54.403 59.192 53.517 59.008 52.271 C 58.825 51.025 59.686 49.839 61.561 49.563 M 62.473 55.759 C 64.954 55.393 66.38 53.617 66.03 51.236 C 65.679 48.855 63.8 47.566 61.32 47.932 C 58.84 48.297 57.401 50.075 57.751 52.456 C 58.102 54.837 59.993 56.124 62.473 55.759 M 64.475 66.637 L 58.32 66.29 L 58.235 67.792 L 66.304 68.248 L 66.422 66.178 L 60.449 62.603 L 66.604 62.95 L 66.689 61.447 L 58.619 60.992 L 58.501 63.063 Z M 59.774 75.433 L 62.578 77.312 L 59.213 77.589 Z M 64.677 76.982 L 57.619 72.03 L 57.185 73.702 L 58.627 74.663 L 57.837 77.704 L 56.11 77.842 L 55.701 79.417 L 64.275 78.535 Z M 52.792 85.947 C 51.758 88.108 52.65 90.066 54.972 91.176 C 57.274 92.276 59.345 91.636 60.36 89.516 C 61.176 87.807 60.758 86.174 59.356 85.208 L 58.703 86.575 C 59.588 87.332 59.593 88.173 59.208 88.978 C 58.68 90.083 57.372 90.495 55.683 89.688 C 53.944 88.857 53.423 87.57 53.927 86.515 C 54.34 85.65 55.074 85.124 56.169 85.364 L 56.823 83.997 C 55.264 83.486 53.627 84.198 52.792 85.947 M 51.335 103.525 L 50.382 102.653 L 47.488 105.819 L 46.008 104.466 L 48.745 101.474 L 47.791 100.602 L 45.055 103.594 L 43.435 102.114 L 46.329 98.949 L 45.375 98.077 L 41.407 102.418 L 47.368 107.867 Z M 37.318 116.22 L 36.647 115.116 L 32.98 117.344 L 31.938 115.63 L 35.404 113.523 L 34.733 112.418 L 31.266 114.525 L 30.125 112.65 L 33.792 110.42 L 33.121 109.315 L 28.092 112.373 L 32.29 119.277 Z M 20.489 123.049 L 20.954 124.256 L 27.092 121.896 L 26.628 120.69 L 24.297 121.585 L 21.862 115.249 L 20.375 115.821 L 22.809 122.157 Z M 9.587 122.131 C 9.331 120.728 9.461 119.832 10.909 119.567 C 12.357 119.302 12.774 120.098 13.031 121.501 L 13.872 126.095 L 15.439 125.808 L 14.6 121.226 C 14.122 118.605 13.005 117.892 10.68 118.317 C 8.356 118.742 7.542 119.809 8.023 122.429 L 8.861 127.011 L 10.429 126.725 Z M -3.406 126.179 L -3.415 127.471 L 3.158 127.516 L 3.167 126.223 L .671 126.206 L .716 119.423 L -.876 119.412 L -.922 126.196 Z M -12.669 122.527 L -11.375 122.763 C -10.158 122.985 -9.698 123.5 -9.84 124.278 C -10.009 125.199 -10.826 125.333 -11.889 125.138 L -13.105 124.916 Z M -12.446 121.31 L -11.876 118.198 L -13.444 117.911 L -14.897 125.856 L -12.289 126.333 C -9.669 126.813 -8.536 126.25 -8.231 124.584 C -8.064 123.674 -8.373 122.825 -9.284 122.228 L -6.891 119.109 L -8.632 118.791 L -10.78 121.615 Z M -19.797 115.931 L -22.457 123.56 L -20.951 124.084 L -18.293 116.456 Z M -27.908 114.517 L -29.085 120.771 L -27.587 121.56 L -26.289 113.116 L -27.729 112.358 L -33.975 118.197 L -32.447 119.001 Z M -44.9 104.812 L -43.961 105.734 C -43.079 106.602 -42.986 107.287 -43.541 107.851 C -44.197 108.52 -44.949 108.171 -45.721 107.413 L -46.604 106.546 Z M -44.033 103.929 L -41.813 101.669 L -42.951 100.551 L -48.617 106.319 L -46.724 108.179 C -44.822 110.047 -43.567 110.218 -42.379 109.008 C -41.73 108.348 -41.509 107.471 -41.928 106.465 L -38.193 105.225 L -39.458 103.982 L -42.823 105.117 Z M -47.117 95.344 L -53.584 100.185 L -52.629 101.46 L -46.162 96.619 Z M -55.334 88.362 C -54.073 87.695 -53.179 87.55 -52.491 88.851 C -51.803 90.151 -52.437 90.789 -53.698 91.456 L -57.827 93.64 L -57.082 95.05 L -52.962 92.871 C -50.607 91.625 -50.263 90.346 -51.367 88.256 C -52.473 86.167 -53.734 85.712 -56.09 86.958 L -60.209 89.137 L -59.463 90.546 Z M -60.723 81.04 C -61.638 81.052 -62.288 80.418 -62.542 79.552 C -62.922 78.257 -62.29 77.085 -60.429 76.539 C -58.578 75.996 -57.34 76.574 -56.951 77.9 C -56.706 78.735 -56.79 79.956 -58.041 80.323 L -58.169 80.36 L -58.737 78.424 L -59.988 78.792 L -59.007 82.139 L -54.889 80.931 L -55.243 79.723 L -56.165 79.947 C -55.662 79.323 -55.48 78.398 -55.8 77.308 C -56.44 75.125 -58.422 74.231 -60.893 74.956 C -63.3 75.662 -64.455 77.545 -63.759 79.92 C -63.225 81.738 -61.802 82.668 -60.296 82.494 Z M -65.765 70.333 L -64.477 70.215 L -64.868 65.941 L -62.87 65.758 L -62.5 69.798 L -61.213 69.681 L -61.583 65.64 L -59.396 65.44 L -59.005 69.714 L -57.717 69.596 L -58.253 63.735 L -66.301 64.472 Z M -63.608 52.135 C -65.229 51.991 -66.092 53.65 -66.224 55.138 C -66.372 56.804 -65.52 58.312 -63.983 58.526 L -63.847 56.994 C -64.781 56.788 -65.019 55.938 -64.952 55.184 C -64.887 54.45 -64.537 53.653 -63.815 53.717 C -63.249 53.767 -62.979 54.272 -62.915 54.927 L -62.819 55.999 C -62.702 57.331 -62.308 58.82 -60.642 58.967 C -58.987 59.114 -58.031 57.542 -57.888 55.92 C -57.712 53.943 -58.663 52.539 -60.382 52.241 L -60.518 53.773 C -59.356 54.056 -59.074 54.909 -59.159 55.864 C -59.221 56.575 -59.557 57.452 -60.422 57.375 C -61.111 57.314 -61.311 56.659 -61.39 55.79 L -61.489 54.751 C -61.628 53.418 -62.208 52.259 -63.608 52.135 M -57.564 36.179 L -58.057 37.397 C -58.521 38.544 -59.118 38.892 -59.851 38.595 C -60.719 38.244 -60.685 37.417 -60.279 36.415 L -59.815 35.268 Z M -56.417 36.643 L -53.484 37.83 L -52.886 36.353 L -60.375 33.323 L -61.369 35.781 C -62.368 38.25 -62.046 39.474 -60.476 40.109 C -59.619 40.456 -58.724 40.325 -57.956 39.554 L -55.385 42.529 L -54.72 40.887 L -57.052 38.213 Z M -57.622 27.957 L -56.532 28.653 L -54.222 25.035 L -52.53 26.115 L -54.714 29.536 L -53.624 30.232 L -51.44 26.812 L -49.588 27.994 L -51.899 31.612 L -50.809 32.308 L -47.64 27.346 L -54.453 22.995 Z M -44.784 17.602 L -45.68 18.565 C -46.355 19.292 -47.066 19.697 -47.85 18.969 C -48.821 18.065 -48.212 17.247 -47.621 16.609 L -46.802 15.728 Z M -48.973 20.161 C -47.462 21.564 -45.972 20.697 -44.705 19.334 L -43.878 18.443 L -41.795 20.379 L -40.711 19.211 L -46.631 13.71 L -48.513 15.735 C -49.643 16.952 -50.762 18.5 -48.973 20.161 M -31.713 8.59 L -32.358 5.275 L -29.788 7.467 Z M -34.073 4.019 L -32.606 12.52 L -31.114 11.648 L -31.45 9.946 L -28.736 8.361 L -27.419 9.489 L -26.014 8.669 L -32.688 3.209 Z M -17.46 -1.062 L -15.558 4.705 L -14.151 4.24 L -16.682 -3.431 L -18.882 -2.704 L -18.772 3.888 L -22.554 -1.493 L -24.775 -.76 L -22.246 6.91 L -20.838 6.446 L -22.74 .68 L -18.955 5.825 L -17.452 5.329 Z " fill="#231f20"/>
<path transform="matrix(1,0,0,-1,14.378,176.5114)" d="M 0 0 C -4.624 0 -7.583 2.312 -8.598 6.89 L -14.378 6.89 C -13.684 -.461 -8.229 -4.808 -.277 -4.808 C 6.332 -4.808 13.037 -1.34 13.037 5.409 C 13.037 12.159 7.442 14.284 1.57 15.44 L -2.543 16.228 C -5.411 16.783 -7.536 18.077 -7.536 20.666 C -7.536 23.948 -3.699 25.103 -1.11 25.103 C 2.172 25.103 5.684 23.948 6.655 19.926 L 12.343 19.926 C 11.001 26.906 5.824 29.911 -.787 29.911 C -6.936 29.911 -13.453 26.767 -13.453 20.48 C -13.453 14.792 -9.063 12.067 -3.791 11.003 L .277 10.216 C 3.466 9.616 7.165 8.462 7.165 5.04 C 7.165 1.804 3.974 0 0 0 " fill="#231f20"/>
<path transform="matrix(1,0,0,-1,0,206.425)" d="M 38.187 59.223 L 32.318 59.223 L 32.318 25.707 L 38.187 25.707 Z " fill="#231f20"/>
<path transform="matrix(1,0,0,-1,57.1426,176.5114)" d="M 0 0 C -4.624 0 -7.582 2.312 -8.6 6.89 L -14.378 6.89 C -13.684 -.461 -8.229 -4.808 -.277 -4.808 C 6.332 -4.808 13.036 -1.34 13.036 5.409 C 13.036 12.159 7.442 14.284 1.57 15.44 L -2.543 16.228 C -5.409 16.783 -7.536 18.077 -7.536 20.666 C -7.536 23.948 -3.699 25.103 -1.11 25.103 C 2.173 25.103 5.686 23.948 6.657 19.926 L 12.341 19.926 C 11.002 26.906 5.824 29.911 -.787 29.911 C -6.936 29.911 -13.453 26.767 -13.453 20.48 C -13.453 14.792 -9.061 12.067 -3.791 11.003 L .277 10.216 C 3.466 9.616 7.165 8.462 7.165 5.04 C 7.165 1.804 3.974 0 0 0 " fill="#231f20"/>
<path transform="matrix(1,0,0,-1,87.5909,176.5114)" d="M 0 0 C -4.624 0 -7.581 2.312 -8.598 6.89 L -14.376 6.89 C -13.684 -.461 -8.229 -4.808 -.277 -4.808 C 6.334 -4.808 13.037 -1.34 13.037 5.409 C 13.037 12.159 7.444 14.284 1.573 15.44 L -2.541 16.228 C -5.409 16.783 -7.536 18.077 -7.536 20.666 C -7.536 23.948 -3.697 25.103 -1.11 25.103 C 2.173 25.103 5.687 23.948 6.657 19.926 L 12.343 19.926 C 11.004 26.906 5.826 29.911 -.785 29.911 C -6.936 29.911 -13.453 26.767 -13.453 20.48 C -13.453 14.792 -9.061 12.067 -3.79 11.003 L .279 10.216 C 3.466 9.616 7.165 8.462 7.165 5.04 C 7.165 1.804 3.977 0 0 0 " fill="#231f20"/>
<path transform="matrix(1,0,0,-1,117.0958,153.99771)" d="M 0 0 L 5.086 -14.376 L -5.036 -14.376 Z M -6.748 -19.275 L 6.844 -19.275 L 9.477 -26.72 L 15.904 -26.72 L 3.33 6.796 L -2.866 6.796 L -15.347 -26.72 L -9.338 -26.72 Z " fill="#231f20"/>
<path transform="matrix(1,0,0,-1,0,206.425)" d="M 0 10.201 L 133 10.201 L 133 15.102 L 0 15.102 Z " fill="#231f20"/>
<path transform="matrix(1,0,0,-1,0,206.425)" d="M 0 0 L 133 0 L 133 4.899 L 0 4.899 Z " fill="#231f20"/>
</g>
</g>
</g>
</svg>
